<?xml version="1.0" encoding="utf-8"?>
<!-- Generator: Adobe Illustrator 26.0.3, SVG Export Plug-In . SVG Version: 6.00 Build 0)  -->
<svg version="1.1" id="圖層_1" xmlns="http://www.w3.org/2000/svg" xmlns:xlink="http://www.w3.org/1999/xlink" x="0px" y="0px"
	 viewBox="0 0 89.2 29.7" style="enable-background:new 0 0 89.2 29.7;" xml:space="preserve">
<style type="text/css">
	
		.st0{fill:none;stroke:url(#XMLID_00000173126712145816919380000002182689935567459977_);stroke-width:0.4432;stroke-miterlimit:10;}
	.st1{fill:none;stroke:url(#SVGID_1_);stroke-width:0.4432;stroke-miterlimit:10;}
	
		.st2{fill:none;stroke:url(#SVGID_00000064353360540100776310000017983238082596871600_);stroke-width:0.4432;stroke-miterlimit:10;}
	
		.st3{fill:none;stroke:url(#SVGID_00000172413233201703420740000008533083274455266203_);stroke-width:0.4432;stroke-miterlimit:10;}
	
		.st4{fill:none;stroke:url(#SVGID_00000061452853637251844260000014271875822669847974_);stroke-width:0.4432;stroke-miterlimit:10;}
	
		.st5{fill:none;stroke:url(#XMLID_00000067220649768531324190000013171658721189706137_);stroke-width:0.4432;stroke-miterlimit:10;}
	.st6{fill:url(#SVGID_00000049193513740806939120000011612176982222725528_);}
	.st7{fill:url(#SVGID_00000131369833650324217610000006131401782924341136_);}
	.st8{fill:url(#SVGID_00000000939069497769354710000018326683775124055443_);}
	.st9{fill:url(#SVGID_00000170275905646246316680000002667081593554044583_);}
	.st10{fill:url(#SVGID_00000126315857667172634560000004588676745825763209_);}
	.st11{fill:url(#SVGID_00000148660853280635220130000002050149264419960495_);}
	.st12{fill:url(#SVGID_00000121963796215216295190000012212872824361569435_);}
	.st13{fill:url(#SVGID_00000084518674310094272890000005284250565364670879_);}
	.st14{fill:url(#SVGID_00000064345983704998269980000017067818415276718005_);}
</style>
<g id="XMLID_00000124861064474847984550000017895829584294574228_">
	
		<linearGradient id="XMLID_00000119101627805485588240000014049107823437747386_" gradientUnits="userSpaceOnUse" x1="0.1428" y1="18.1646" x2="27.1615" y2="18.1646">
		<stop  offset="0" style="stop-color:#FFFFFF"/>
		<stop  offset="0.3456" style="stop-color:#935AA0"/>
		<stop  offset="0.6998" style="stop-color:#77308D"/>
		<stop  offset="1" style="stop-color:#791584"/>
	</linearGradient>
	
		<path id="XMLID_00000092453502060571331730000004145648536626333881_" style="fill:none;stroke:url(#XMLID_00000119101627805485588240000014049107823437747386_);stroke-width:0.4432;stroke-miterlimit:10;" d="
		M26.9,13c0,6.5-7.9,16-14.4,16s-16.6-13.1-10-17.4C8.2,7.9,14.1,14,18.4,9.6C21.9,6,26.9,6.5,26.9,13z"/>
	<linearGradient id="SVGID_1_" gradientUnits="userSpaceOnUse" x1="0.5877" y1="17.3587" x2="26.3808" y2="17.3587">
		<stop  offset="0" style="stop-color:#FCFCFC"/>
		<stop  offset="0.3456" style="stop-color:#7F5FA5"/>
		<stop  offset="0.6998" style="stop-color:#654293"/>
		<stop  offset="1" style="stop-color:#622D85"/>
	</linearGradient>
	<path class="st1" d="M18.6,7.8c3.7-2.5,6,0.1,7.4,6.7c1.5,7.3-7.2,12.6-13.5,13.4C5.4,28.7-3.6,16.5,3.3,12.5
		C9.6,8.7,14.1,10.8,18.6,7.8z"/>
	
		<linearGradient id="SVGID_00000024703205998510157240000014287795400569304965_" gradientUnits="userSpaceOnUse" x1="1.0048" y1="16.3087" x2="25.8751" y2="16.3087">
		<stop  offset="0" style="stop-color:#F9F9F9"/>
		<stop  offset="0.3456" style="stop-color:#6C64AA"/>
		<stop  offset="0.6998" style="stop-color:#535599"/>
		<stop  offset="1" style="stop-color:#4C4586"/>
	</linearGradient>
	
		<path style="fill:none;stroke:url(#SVGID_00000024703205998510157240000014287795400569304965_);stroke-width:0.4432;stroke-miterlimit:10;" d="
		M18.8,6c4-1.4,3.6,3.2,6.2,9.9c3.2,8.1-6.4,9.3-12.6,10.8C4.8,28.5-3.1,17.1,4,13.4C11,9.6,14.2,7.6,18.8,6z"/>
	
		<linearGradient id="SVGID_00000002357618388635833910000011097458020918217128_" gradientUnits="userSpaceOnUse" x1="1.3937" y1="15.0918" x2="25.5566" y2="15.0918">
		<stop  offset="0" style="stop-color:#F5F5F5"/>
		<stop  offset="0.3456" style="stop-color:#5868AE"/>
		<stop  offset="0.6998" style="stop-color:#42679F"/>
		<stop  offset="1" style="stop-color:#355C86"/>
	</linearGradient>
	
		<path style="fill:none;stroke:url(#SVGID_00000002357618388635833910000011097458020918217128_);stroke-width:0.4432;stroke-miterlimit:10;" d="
		M19,4.2c4.3-0.2,1.2,6.3,5.1,13.2c4.9,8.8-5.7,6.1-11.7,8.1c-8.1,2.8-15-7.8-7.7-11.3C12.4,10.5,14.3,4.4,19,4.2z"/>
	
		<linearGradient id="SVGID_00000021115987308790281280000010624660652235591859_" gradientUnits="userSpaceOnUse" x1="1.7557" y1="13.7894" x2="25.3645" y2="13.7894">
		<stop  offset="0" style="stop-color:#F2F2F2"/>
		<stop  offset="0.3456" style="stop-color:#456DB3"/>
		<stop  offset="0.6998" style="stop-color:#307AA5"/>
		<stop  offset="1" style="stop-color:#1F7487"/>
	</linearGradient>
	
		<path style="fill:none;stroke:url(#SVGID_00000021115987308790281280000010624660652235591859_);stroke-width:0.4432;stroke-miterlimit:10;" d="
		M19.2,2.4c4.6,1.1-1.1,9.4,3.9,16.4c6.7,9.5-4.9,2.9-10.8,5.5c-8.6,3.9-14.4-6-6.9-9.3C13.9,11.4,14.4,1.3,19.2,2.4z"/>
	
		<linearGradient id="XMLID_00000114059591417329206620000000628461671830571164_" gradientUnits="userSpaceOnUse" x1="2.0933" y1="12.5883" x2="25.2579" y2="12.5883">
		<stop  offset="0" style="stop-color:#E6E6E6"/>
		<stop  offset="0.3456" style="stop-color:#3172B8"/>
		<stop  offset="0.6998" style="stop-color:#1E8CAB"/>
		<stop  offset="1" style="stop-color:#088C88"/>
	</linearGradient>
	
		<path id="XMLID_00000098932991054417841410000007664588113555313594_" style="fill:none;stroke:url(#XMLID_00000114059591417329206620000000628461671830571164_);stroke-width:0.4432;stroke-miterlimit:10;" d="
		M22.1,20.3c8.6,10.1-4.1-0.2-9.9,2.9c-9,5-13.9-4.2-6.1-7.3c9.1-3.6,8.3-17.7,13.2-15.3C24.2,3,16,13.1,22.1,20.3z"/>
</g>
<g>
	
		<linearGradient id="SVGID_00000069370128250667520330000012289607681255784875_" gradientUnits="userSpaceOnUse" x1="90.3115" y1="47.3909" x2="31.4692" y2="16.3122">
		<stop  offset="0" style="stop-color:#45BEE6"/>
		<stop  offset="0.5215" style="stop-color:#587DBE"/>
		<stop  offset="1" style="stop-color:#6D4B9B"/>
	</linearGradient>
	<path style="fill:url(#SVGID_00000069370128250667520330000012289607681255784875_);" d="M50.3,27.7h-3.5v-1.9h3.5v-0.2
		c0-1-0.8-1.8-1.8-1.8h-1.8V22h5.3v-0.2c0-1-0.8-1.8-1.8-1.8h-5.8v9.7h7.7v-0.2C52.1,28.5,51.3,27.7,50.3,27.7z"/>
	
		<linearGradient id="SVGID_00000075876471840517680590000001725268069782263224_" gradientUnits="userSpaceOnUse" x1="95.1238" y1="38.2796" x2="36.2815" y2="7.2009">
		<stop  offset="0" style="stop-color:#45BEE6"/>
		<stop  offset="0.5215" style="stop-color:#587DBE"/>
		<stop  offset="1" style="stop-color:#6D4B9B"/>
	</linearGradient>
	<path style="fill:url(#SVGID_00000075876471840517680590000001725268069782263224_);" d="M74.2,19.9h-2.8l-4,4.3l0-4.9l-0.2,0
		c-0.5,0.1-2,0.3-2.1,2.1l0,8.2h0.2c1.2,0,2.2-1,2.2-2.2l0-2.4l4,4.5h3.1l-4.8-5.2L74.2,19.9z"/>
	
		<linearGradient id="SVGID_00000005248608949518337520000000557221384991695763_" gradientUnits="userSpaceOnUse" x1="88.2204" y1="51.3501" x2="29.3781" y2="20.2714">
		<stop  offset="0" style="stop-color:#45BEE6"/>
		<stop  offset="0.5215" style="stop-color:#587DBE"/>
		<stop  offset="1" style="stop-color:#6D4B9B"/>
	</linearGradient>
	<path style="fill:url(#SVGID_00000005248608949518337520000000557221384991695763_);" d="M41.8,20.4c-0.5-0.3-1.1-0.4-1.7-0.4h-5.1
		v9.7l0.2,0c0.5-0.1,2.1-0.4,2.1-2.2v-1.3h2.8c0.6,0,1.2-0.1,1.7-0.4c0.5-0.3,0.9-0.6,1.2-1.1c0.3-0.5,0.4-1,0.4-1.6
		c0-0.6-0.1-1.1-0.4-1.6C42.6,21,42.2,20.6,41.8,20.4z M40.7,23.9c-0.2,0.2-0.5,0.3-0.9,0.3h-2.5v-2.3h2.5c0.4,0,0.7,0.1,0.9,0.3
		c0.2,0.2,0.3,0.5,0.3,0.8C41,23.5,40.9,23.7,40.7,23.9z"/>
	
		<linearGradient id="SVGID_00000114059542904796612350000014353140761859890616_" gradientUnits="userSpaceOnUse" x1="98.4487" y1="31.9844" x2="39.6064" y2="0.9058">
		<stop  offset="0" style="stop-color:#45BEE6"/>
		<stop  offset="0.5215" style="stop-color:#587DBE"/>
		<stop  offset="1" style="stop-color:#6D4B9B"/>
	</linearGradient>
	<path style="fill:url(#SVGID_00000114059542904796612350000014353140761859890616_);" d="M63.5,8c-0.5-0.5-1-0.8-1.7-1.1
		c-1.3-0.5-2.8-0.5-4.1,0c-0.6,0.3-1.2,0.6-1.7,1.1c-0.5,0.5-0.8,1-1.1,1.6c-0.3,0.6-0.4,1.3-0.4,2c0,0.7,0.1,1.4,0.4,2
		c0.3,0.6,0.6,1.1,1.1,1.6c0.5,0.5,1,0.8,1.7,1.1c0.6,0.3,1.3,0.4,2,0.4c0.7,0,1.4-0.1,2-0.4c0.6-0.3,1.2-0.6,1.7-1.1
		c0.5-0.5,0.8-1,1.1-1.6c0.3-0.6,0.4-1.3,0.4-2c0-0.7-0.1-1.4-0.4-2C64.4,9,64,8.5,63.5,8z M62.4,12.7c-0.1,0.4-0.3,0.7-0.6,0.9
		c-0.2,0.3-0.5,0.5-0.9,0.6c-0.7,0.3-1.5,0.3-2.2,0c-0.3-0.1-0.6-0.3-0.9-0.6c-0.2-0.3-0.4-0.6-0.6-0.9C57.1,12.4,57,12,57,11.6
		c0-0.4,0.1-0.8,0.2-1.1c0.1-0.3,0.3-0.7,0.6-0.9c0.2-0.3,0.5-0.5,0.9-0.6c0.3-0.1,0.7-0.2,1.1-0.2c0.4,0,0.8,0.1,1.1,0.2
		c0.3,0.1,0.6,0.3,0.9,0.6c0.2,0.3,0.4,0.6,0.6,0.9c0.1,0.3,0.2,0.7,0.2,1.1C62.6,12,62.6,12.4,62.4,12.7z"/>
	
		<linearGradient id="SVGID_00000126324602897681631870000010354667146325849520_" gradientUnits="userSpaceOnUse" x1="103.3326" y1="22.7378" x2="44.4902" y2="-8.3409">
		<stop  offset="0" style="stop-color:#45BEE6"/>
		<stop  offset="0.5215" style="stop-color:#587DBE"/>
		<stop  offset="1" style="stop-color:#6D4B9B"/>
	</linearGradient>
	<path style="fill:url(#SVGID_00000126324602897681631870000010354667146325849520_);" d="M88.3,9.7c-0.3-0.6-0.6-1.1-1.1-1.6
		c-0.5-0.4-1-0.8-1.6-1c-0.6-0.2-1.3-0.4-2-0.4h-3.9v9.7h3.9c0.7,0,1.4-0.1,2-0.4c0.6-0.2,1.2-0.6,1.6-1c0.5-0.4,0.8-1,1.1-1.5
		c0.3-0.6,0.4-1.2,0.4-1.9C88.7,10.9,88.5,10.3,88.3,9.7z M86,12.7c-0.1,0.3-0.3,0.6-0.6,0.9c-0.3,0.3-0.6,0.5-0.9,0.6
		c-0.3,0.1-0.7,0.2-1.1,0.2h-1.6V8.8h1.6c0.4,0,0.8,0.1,1.1,0.2c0.3,0.1,0.6,0.3,0.9,0.6c0.3,0.3,0.5,0.6,0.6,0.9
		c0.1,0.3,0.2,0.7,0.2,1.1C86.2,12,86.2,12.4,86,12.7z"/>
	
		<linearGradient id="SVGID_00000079453594241775126790000003521875187233674646_" gradientUnits="userSpaceOnUse" x1="95.966" y1="36.6851" x2="37.1237" y2="5.6064">
		<stop  offset="0" style="stop-color:#45BEE6"/>
		<stop  offset="0.5215" style="stop-color:#587DBE"/>
		<stop  offset="1" style="stop-color:#6D4B9B"/>
	</linearGradient>
	<path style="fill:url(#SVGID_00000079453594241775126790000003521875187233674646_);" d="M53.1,14.4l-1.2-2.2l0.1,0
		c0.5-0.2,1-0.6,1.3-1.1c0.3-0.5,0.5-0.8,0.5-1.4c0-0.6-0.1-1.1-0.4-1.6c-0.3-0.5-0.7-0.8-1.2-1.1c-0.5-0.3-1.1-0.4-1.8-0.4h-4.9
		v9.9l0.1,0c0.5-0.1,2-0.4,2.1-2.1l0-2h2l2.1,4l0,0.1h0.1c0.5,0,1-0.3,1.2-0.7C53.4,15.4,53.4,14.9,53.1,14.4z M51.2,10.4L51.2,10.4
		c-0.2,0.2-0.6,0.3-1,0.3h-2.5V8.3h2.5c0.4,0,0.7,0.1,1,0.3c0.2,0.2,0.4,0.5,0.4,0.9C51.5,9.9,51.4,10.2,51.2,10.4z"/>
	
		<linearGradient id="SVGID_00000075155611990465934440000013089843845462310832_" gradientUnits="userSpaceOnUse" x1="94.1228" y1="40.1749" x2="35.2805" y2="9.0962">
		<stop  offset="0" style="stop-color:#45BEE6"/>
		<stop  offset="0.5215" style="stop-color:#587DBE"/>
		<stop  offset="1" style="stop-color:#6D4B9B"/>
	</linearGradient>
	<path style="fill:url(#SVGID_00000075155611990465934440000013089843845462310832_);" d="M37.8,9.4c0.3-0.3,0.6-0.5,0.9-0.6
		c0.4-0.2,0.8-0.2,1.2-0.2c0.5,0,1,0.1,1.4,0.3c0.4,0.2,0.8,0.5,1.2,0.9l0.1,0.1l1.5-1.5l-0.1-0.1c-0.3-0.4-0.7-0.7-1.1-1
		C42.5,7,42,6.8,41.5,6.7c-0.5-0.2-1-0.2-1.6-0.2c-0.7,0-1.4,0.1-2.1,0.4c-0.6,0.3-1.2,0.6-1.7,1.1c-0.5,0.5-0.9,1-1.1,1.6
		c-0.3,0.6-0.4,1.3-0.4,2c0,0.7,0.1,1.4,0.4,2c0.3,0.6,0.6,1.2,1.1,1.6c0.5,0.5,1,0.8,1.7,1.1c0.6,0.3,1.3,0.4,2.1,0.4
		c0.5,0,1-0.1,1.5-0.2c0.5-0.1,1-0.4,1.4-0.6c0.4-0.3,0.8-0.6,1.1-1l0.1-0.1l-1.5-1.5l-0.1,0.1c-0.3,0.4-0.7,0.7-1.1,0.9
		c-0.4,0.2-0.9,0.3-1.4,0.3c-0.4,0-0.9-0.1-1.2-0.2c-0.4-0.2-0.7-0.4-1-0.6c-0.3-0.3-0.5-0.6-0.6-1C37.1,12.4,37,12,37,11.6
		c0-0.4,0.1-0.9,0.2-1.2C37.4,10,37.6,9.7,37.8,9.4z"/>
	
		<linearGradient id="SVGID_00000076584177417128431370000006792242776791900330_" gradientUnits="userSpaceOnUse" x1="92.2951" y1="43.6353" x2="33.4528" y2="12.5566">
		<stop  offset="0" style="stop-color:#45BEE6"/>
		<stop  offset="0.5215" style="stop-color:#587DBE"/>
		<stop  offset="1" style="stop-color:#6D4B9B"/>
	</linearGradient>
	<path style="fill:url(#SVGID_00000076584177417128431370000006792242776791900330_);" d="M63,27.4l-3-7.5h-2.7l-4,9.7h0.3
		c0.1,0,0.3,0,0.4,0c0.1,0,0.2,0,0.4,0c0.9,0,1.6-0.2,2.2-2l0.1-0.4h3.9l0.1,0.4c0,0,0,0,0,0l0.3,0.8c0,0,0,0,0,0
		c0.3,0.6,0.7,0.9,1.1,1.1c0.3,0.1,0.5,0.1,0.8,0.1c0.1,0,0.2,0,0.4,0c0.1,0,0.3,0,0.4,0h0.3L63,27.4C63,27.4,63,27.4,63,27.4z
		 M57.3,25.4l1.3-3.3l1.2,3.3H57.3z"/>
	
		<linearGradient id="SVGID_00000082340395988675652410000013183932246282223545_" gradientUnits="userSpaceOnUse" x1="101.3266" y1="26.5357" x2="42.4843" y2="-4.543">
		<stop  offset="0" style="stop-color:#45BEE6"/>
		<stop  offset="0.5215" style="stop-color:#587DBE"/>
		<stop  offset="1" style="stop-color:#6D4B9B"/>
	</linearGradient>
	<path style="fill:url(#SVGID_00000082340395988675652410000013183932246282223545_);" d="M75.6,7.7l-0.9,4.5l-1.2-4.3
		c-0.2-0.7-0.8-1.1-1.5-1.1c0,0,0,0,0,0h0c0,0,0,0,0,0c-0.7,0-1.3,0.5-1.5,1.1l-1.2,4.3l-0.9-4.5c-0.1-0.6-0.6-1-1.2-1h-1.6l1.4,6.4
		l0.7,3.4l0,0h2.7l1.1-4.1l0.5-1.7l1.6,5.8l0,0.1h2.7l0.6-2.8l1.5-6.9l0-0.2h-1.6C76.3,6.7,75.7,7.1,75.6,7.7z"/>
</g>
</svg>
