<?xml version="1.0" encoding="utf-8"?>
<!-- Generator: Adobe Illustrator 26.0.3, SVG Export Plug-In . SVG Version: 6.00 Build 0)  -->
<svg version="1.1" id="圖層_1" xmlns="http://www.w3.org/2000/svg" xmlns:xlink="http://www.w3.org/1999/xlink" x="0px" y="0px"
	 viewBox="0 0 88.6 29.6" style="enable-background:new 0 0 88.6 29.6;" xml:space="preserve">
<style type="text/css">
	.st0{fill:url(#SVGID_1_);}
	.st1{fill:url(#SVGID_00000018236515356243299240000013825434815242880391_);}
	.st2{fill:url(#SVGID_00000058584345201359395440000000580132043706659262_);}
	.st3{fill:url(#SVGID_00000009560740255221565710000010180251097290952872_);}
	.st4{fill:url(#SVGID_00000156576810058188627880000010289778734144331163_);}
	.st5{fill:url(#SVGID_00000031901970255047289890000011621542203369624235_);}
	.st6{fill:url(#SVGID_00000093857745537312867420000013039051651612331437_);}
	.st7{fill:url(#SVGID_00000127749619267004608000000009195705993168571780_);}
	.st8{fill:url(#SVGID_00000135689552501961181070000016912469198062296732_);}
	.st9{fill:none;stroke:url(#SVGID_00000121261293837273763330000008991663534210159295_);stroke-width:0.45;stroke-miterlimit:10;}
	.st10{fill:none;stroke:url(#SVGID_00000158736917464416735250000017766286552484488344_);stroke-width:0.45;stroke-miterlimit:10;}
	.st11{fill:none;stroke:url(#SVGID_00000045579950592652719800000008164538035691405703_);stroke-width:0.45;stroke-miterlimit:10;}
	.st12{fill:none;stroke:url(#SVGID_00000100342046502564929170000003056477975853535886_);stroke-width:0.45;stroke-miterlimit:10;}
	.st13{fill:none;stroke:url(#SVGID_00000004531982952897633450000018012147107473818037_);stroke-width:0.45;stroke-miterlimit:10;}
	.st14{fill:none;stroke:url(#SVGID_00000168836619904355023070000014400896820023785633_);stroke-width:0.45;stroke-miterlimit:10;}
</style>
<g>
	
		<linearGradient id="SVGID_1_" gradientUnits="userSpaceOnUse" x1="90.1608" y1="612.5792" x2="31.3188" y2="581.5006" gradientTransform="matrix(1 0 0 1 0 -565.2579)">
		<stop  offset="0" style="stop-color:#45BEE6"/>
		<stop  offset="0.5215" style="stop-color:#587DBE"/>
		<stop  offset="1" style="stop-color:#6D4B9B"/>
	</linearGradient>
	<path class="st0" d="M50.2,27.6h-3.5v-1.9h3.5v-0.2c0-1-0.8-1.8-1.8-1.8h-1.8v-1.8h5.3v-0.2c0-1-0.8-1.8-1.8-1.8h-5.8v9.7H52v-0.2
		C52,28.4,51.2,27.6,50.2,27.6z"/>
	
		<linearGradient id="SVGID_00000162352861934251069740000014994747838715752865_" gradientUnits="userSpaceOnUse" x1="95.0277" y1="603.3644" x2="36.1857" y2="572.2859" gradientTransform="matrix(1 0 0 1 0 -565.2579)">
		<stop  offset="0" style="stop-color:#45BEE6"/>
		<stop  offset="0.5215" style="stop-color:#587DBE"/>
		<stop  offset="1" style="stop-color:#6D4B9B"/>
	</linearGradient>
	<path style="fill:url(#SVGID_00000162352861934251069740000014994747838715752865_);" d="M74.1,19.8h-2.8l-4,4.3v-4.9h-0.2
		c-0.5,0.1-2,0.3-2.1,2.1v8.2h0.2c1.2,0,2.2-1,2.2-2.2v-2.4l4,4.5h3.1l-4.8-5.2L74.1,19.8z"/>
	
		<linearGradient id="SVGID_00000033340994447591851720000015277426911472178833_" gradientUnits="userSpaceOnUse" x1="88.0885" y1="616.5027" x2="29.2465" y2="585.4241" gradientTransform="matrix(1 0 0 1 0 -565.2579)">
		<stop  offset="0" style="stop-color:#45BEE6"/>
		<stop  offset="0.5215" style="stop-color:#587DBE"/>
		<stop  offset="1" style="stop-color:#6D4B9B"/>
	</linearGradient>
	<path style="fill:url(#SVGID_00000033340994447591851720000015277426911472178833_);" d="M41.7,20.3c-0.5-0.3-1.1-0.4-1.7-0.4h-5.1
		v9.7h0.2c0.5-0.1,2.1-0.4,2.1-2.2v-1.3H40c0.6,0,1.2-0.1,1.7-0.4s0.9-0.6,1.2-1.1s0.4-1,0.4-1.6s-0.1-1.1-0.4-1.6
		C42.5,20.9,42.1,20.5,41.7,20.3z M40.6,23.8c-0.2,0.2-0.5,0.3-0.9,0.3h-2.5v-2.3h2.5c0.4,0,0.7,0.1,0.9,0.3
		c0.2,0.2,0.3,0.5,0.3,0.8C40.9,23.4,40.8,23.6,40.6,23.8z"/>
	
		<linearGradient id="SVGID_00000079448450151259238270000002483158043280248767_" gradientUnits="userSpaceOnUse" x1="98.2989" y1="597.1709" x2="39.4569" y2="566.0925" gradientTransform="matrix(1 0 0 1 0 -565.2579)">
		<stop  offset="0" style="stop-color:#45BEE6"/>
		<stop  offset="0.5215" style="stop-color:#587DBE"/>
		<stop  offset="1" style="stop-color:#6D4B9B"/>
	</linearGradient>
	<path style="fill:url(#SVGID_00000079448450151259238270000002483158043280248767_);" d="M63.4,7.9c-0.5-0.5-1-0.8-1.7-1.1
		c-1.3-0.5-2.8-0.5-4.1,0c-0.6,0.3-1.2,0.6-1.7,1.1s-0.8,1-1.1,1.6s-0.4,1.3-0.4,2s0.1,1.4,0.4,2s0.6,1.1,1.1,1.6s1,0.8,1.7,1.1
		c0.6,0.3,1.3,0.4,2,0.4s1.4-0.1,2-0.4s1.2-0.6,1.7-1.1s0.8-1,1.1-1.6c0.3-0.6,0.4-1.3,0.4-2s-0.1-1.4-0.4-2
		C64.3,8.9,63.9,8.4,63.4,7.9z M62.3,12.6c-0.1,0.4-0.3,0.7-0.6,0.9c-0.2,0.3-0.5,0.5-0.9,0.6c-0.7,0.3-1.5,0.3-2.2,0
		c-0.3-0.1-0.6-0.3-0.9-0.6c-0.2-0.3-0.4-0.6-0.6-0.9c-0.1-0.3-0.2-0.7-0.2-1.1c0-0.4,0.1-0.8,0.2-1.1c0.1-0.3,0.3-0.7,0.6-0.9
		c0.2-0.3,0.5-0.5,0.9-0.6c0.3-0.1,0.7-0.2,1.1-0.2c0.4,0,0.8,0.1,1.1,0.2c0.3,0.1,0.6,0.3,0.9,0.6c0.2,0.3,0.4,0.6,0.6,0.9
		c0.1,0.3,0.2,0.7,0.2,1.1S62.5,12.3,62.3,12.6z"/>
	
		<linearGradient id="SVGID_00000029033099187254192350000015800971495581414027_" gradientUnits="userSpaceOnUse" x1="103.2411" y1="587.814" x2="44.399" y2="556.7355" gradientTransform="matrix(1 0 0 1 0 -565.2579)">
		<stop  offset="0" style="stop-color:#45BEE6"/>
		<stop  offset="0.5215" style="stop-color:#587DBE"/>
		<stop  offset="1" style="stop-color:#6D4B9B"/>
	</linearGradient>
	<path style="fill:url(#SVGID_00000029033099187254192350000015800971495581414027_);" d="M88.2,9.6C87.9,9,87.6,8.5,87.1,8
		c-0.5-0.4-1-0.8-1.6-1s-1.3-0.4-2-0.4h-3.9v9.7h3.9c0.7,0,1.4-0.1,2-0.4c0.6-0.2,1.2-0.6,1.6-1c0.5-0.4,0.8-1,1.1-1.5
		c0.3-0.6,0.4-1.2,0.4-1.9C88.6,10.8,88.4,10.2,88.2,9.6z M85.9,12.6c-0.1,0.3-0.3,0.6-0.6,0.9c-0.3,0.3-0.6,0.5-0.9,0.6
		s-0.7,0.2-1.1,0.2h-1.6V8.7h1.6c0.4,0,0.8,0.1,1.1,0.2C84.7,9,85,9.2,85.3,9.5s0.5,0.6,0.6,0.9c0.1,0.3,0.2,0.7,0.2,1.1
		S86.1,12.3,85.9,12.6z"/>
	
		<linearGradient id="SVGID_00000142152766238834524260000004981099799050061983_" gradientUnits="userSpaceOnUse" x1="95.8604" y1="601.7881" x2="37.0184" y2="570.7097" gradientTransform="matrix(1 0 0 1 0 -565.2579)">
		<stop  offset="0" style="stop-color:#45BEE6"/>
		<stop  offset="0.5215" style="stop-color:#587DBE"/>
		<stop  offset="1" style="stop-color:#6D4B9B"/>
	</linearGradient>
	<path style="fill:url(#SVGID_00000142152766238834524260000004981099799050061983_);" d="M53,14.3l-1.2-2.2h0.1
		c0.5-0.2,1-0.6,1.3-1.1s0.5-0.8,0.5-1.4c0-0.6-0.1-1.1-0.4-1.6c-0.3-0.5-0.7-0.8-1.2-1.1S51,6.5,50.3,6.5h-4.9v9.9h0.1
		c0.5-0.1,2-0.4,2.1-2.1v-2h2l2.1,4v0.1h0.1c0.5,0,1-0.3,1.2-0.7C53.3,15.3,53.3,14.8,53,14.3z M51.1,10.3L51.1,10.3
		c-0.2,0.2-0.6,0.3-1,0.3h-2.5V8.2h2.5c0.4,0,0.7,0.1,1,0.3c0.2,0.2,0.4,0.5,0.4,0.9C51.4,9.8,51.3,10.1,51.1,10.3z"/>
	
		<linearGradient id="SVGID_00000090255600509349600720000000002142567825180560_" gradientUnits="userSpaceOnUse" x1="93.9866" y1="605.3357" x2="35.1446" y2="574.2572" gradientTransform="matrix(1 0 0 1 0 -565.2579)">
		<stop  offset="0" style="stop-color:#45BEE6"/>
		<stop  offset="0.5215" style="stop-color:#587DBE"/>
		<stop  offset="1" style="stop-color:#6D4B9B"/>
	</linearGradient>
	<path style="fill:url(#SVGID_00000090255600509349600720000000002142567825180560_);" d="M37.7,9.3C38,9,38.3,8.8,38.6,8.7
		c0.4-0.2,0.8-0.2,1.2-0.2c0.5,0,1,0.1,1.4,0.3s0.8,0.5,1.2,0.9l0.1,0.1L44,8.3l-0.1-0.1c-0.3-0.4-0.7-0.7-1.1-1
		c-0.4-0.3-0.9-0.5-1.4-0.6c-0.5-0.2-1-0.2-1.6-0.2c-0.7,0-1.4,0.1-2.1,0.4c-0.6,0.3-1.2,0.6-1.7,1.1s-0.9,1-1.1,1.6
		c-0.3,0.6-0.4,1.3-0.4,2s0.1,1.4,0.4,2s0.6,1.2,1.1,1.6c0.5,0.5,1,0.8,1.7,1.1c0.6,0.3,1.3,0.4,2.1,0.4c0.5,0,1-0.1,1.5-0.2
		s1-0.4,1.4-0.6c0.4-0.3,0.8-0.6,1.1-1l0.1-0.1l-1.5-1.5l-0.1,0.1c-0.3,0.4-0.7,0.7-1.1,0.9s-0.9,0.3-1.4,0.3
		c-0.4,0-0.9-0.1-1.2-0.2c-0.4-0.2-0.7-0.4-1-0.6c-0.3-0.3-0.5-0.6-0.6-1c0-0.4-0.1-0.8-0.1-1.2s0.1-0.9,0.2-1.2
		C37.3,9.9,37.5,9.6,37.7,9.3z"/>
	
		<linearGradient id="SVGID_00000078043314361282568310000007121311772083894966_" gradientUnits="userSpaceOnUse" x1="92.1922" y1="608.733" x2="33.3502" y2="577.6545" gradientTransform="matrix(1 0 0 1 0 -565.2579)">
		<stop  offset="0" style="stop-color:#45BEE6"/>
		<stop  offset="0.5215" style="stop-color:#587DBE"/>
		<stop  offset="1" style="stop-color:#6D4B9B"/>
	</linearGradient>
	<path style="fill:url(#SVGID_00000078043314361282568310000007121311772083894966_);" d="M62.9,27.3l-3-7.5h-2.7l-4,9.7h0.3
		c0.1,0,0.3,0,0.4,0c0.1,0,0.2,0,0.4,0c0.9,0,1.6-0.2,2.2-2l0.1-0.4h3.9l0.1,0.4l0,0l0.3,0.8l0,0c0.3,0.6,0.7,0.9,1.1,1.1
		c0.3,0.1,0.5,0.1,0.8,0.1c0.1,0,0.2,0,0.4,0c0.1,0,0.3,0,0.4,0h0.3L62.9,27.3L62.9,27.3z M57.2,25.3l1.3-3.3l1.2,3.3H57.2z"/>
	
		<linearGradient id="SVGID_00000094601987145571264680000004451380782762876308_" gradientUnits="userSpaceOnUse" x1="101.1999" y1="591.6786" x2="42.3579" y2="560.6" gradientTransform="matrix(1 0 0 1 0 -565.2579)">
		<stop  offset="0" style="stop-color:#45BEE6"/>
		<stop  offset="0.5215" style="stop-color:#587DBE"/>
		<stop  offset="1" style="stop-color:#6D4B9B"/>
	</linearGradient>
	<path style="fill:url(#SVGID_00000094601987145571264680000004451380782762876308_);" d="M75.5,7.6l-0.9,4.5l-1.2-4.3
		c-0.2-0.7-0.8-1.1-1.5-1.1l0,0l0,0l0,0c-0.7,0-1.3,0.5-1.5,1.1l-1.2,4.3l-0.9-4.5c-0.1-0.6-0.6-1-1.2-1h-1.6l1.4,6.4l0.7,3.4l0,0
		h2.7l1.1-4.1l0.5-1.7l1.6,5.8v0.1h2.7l0.6-2.8l1.5-6.9V6.6h-1.6C76.2,6.6,75.6,7,75.5,7.6z"/>
</g>
<g id="XMLID_00000157998342550107266370000015500764881726277520_">
	
		<linearGradient id="SVGID_00000065766638569019511160000012678209407436423814_" gradientUnits="userSpaceOnUse" x1="2.136633e-02" y1="18.0793" x2="27.0207" y2="18.0793">
		<stop  offset="0.3456" style="stop-color:#935AA0"/>
		<stop  offset="0.6998" style="stop-color:#77308D"/>
		<stop  offset="1" style="stop-color:#791584"/>
	</linearGradient>
	
		<path style="fill:none;stroke:url(#SVGID_00000065766638569019511160000012678209407436423814_);stroke-width:0.45;stroke-miterlimit:10;" d="
		M26.8,12.9c0,6.5-7.9,16-14.4,16s-16.6-13.1-10-17.4c5.7-3.7,11.5,2.4,15.9-2.1C21.8,5.9,26.8,6.4,26.8,12.9z"/>
	
		<linearGradient id="SVGID_00000011009835941748305810000008254886026676381886_" gradientUnits="userSpaceOnUse" x1="0.4659" y1="17.2742" x2="26.2408" y2="17.2742">
		<stop  offset="0" style="stop-color:#7F5FA5"/>
		<stop  offset="0.3456" style="stop-color:#7E61A4"/>
		<stop  offset="0.6998" style="stop-color:#654293"/>
		<stop  offset="1" style="stop-color:#622D85"/>
	</linearGradient>
	
		<path style="fill:none;stroke:url(#SVGID_00000011009835941748305810000008254886026676381886_);stroke-width:0.45;stroke-miterlimit:10;" d="
		M18.5,7.7c3.7-2.5,6,0.1,7.4,6.7c1.5,7.3-7.2,12.6-13.5,13.4c-7,0.9-16-11.3-9.2-15.3C9.5,8.7,14,10.7,18.5,7.7z"/>
	
		<linearGradient id="SVGID_00000041273436936488349240000011830500157103021965_" gradientUnits="userSpaceOnUse" x1="0.8825" y1="16.2252" x2="25.7356" y2="16.2252">
		<stop  offset="0" style="stop-color:#6C64AA"/>
		<stop  offset="0.3456" style="stop-color:#6869A7"/>
		<stop  offset="0.6998" style="stop-color:#535599"/>
		<stop  offset="1" style="stop-color:#4C4586"/>
	</linearGradient>
	
		<path style="fill:none;stroke:url(#SVGID_00000041273436936488349240000011830500157103021965_);stroke-width:0.45;stroke-miterlimit:10;" d="
		M18.7,5.9c4-1.4,3.6,3.2,6.2,9.9c3.2,8.1-6.4,9.3-12.6,10.7C4.7,28.4-3.2,17,3.9,13.3C10.9,9.5,14,7.5,18.7,5.9z"/>
	
		<linearGradient id="SVGID_00000112600063646116330830000010186534828197553574_" gradientUnits="userSpaceOnUse" x1="1.271" y1="15.0095" x2="25.4174" y2="15.0095">
		<stop  offset="0" style="stop-color:#5868AE"/>
		<stop  offset="0.3456" style="stop-color:#5370AB"/>
		<stop  offset="0.6998" style="stop-color:#42679F"/>
		<stop  offset="1" style="stop-color:#355C86"/>
	</linearGradient>
	
		<path style="fill:none;stroke:url(#SVGID_00000112600063646116330830000010186534828197553574_);stroke-width:0.45;stroke-miterlimit:10;" d="
		M18.8,4.1c4.3-0.2,1.2,6.3,5.1,13.2c4.9,8.8-5.7,6.1-11.7,8.1c-8.1,2.8-15-7.8-7.7-11.3C12.3,10.4,14.2,4.3,18.8,4.1z"/>
	
		<linearGradient id="SVGID_00000156545501802526394030000003670093392910942378_" gradientUnits="userSpaceOnUse" x1="1.6327" y1="13.7084" x2="25.2255" y2="13.7084">
		<stop  offset="0" style="stop-color:#456DB3"/>
		<stop  offset="0.3456" style="stop-color:#3D78AE"/>
		<stop  offset="0.6998" style="stop-color:#307AA5"/>
		<stop  offset="1" style="stop-color:#1F7487"/>
	</linearGradient>
	
		<path style="fill:none;stroke:url(#SVGID_00000156545501802526394030000003670093392910942378_);stroke-width:0.45;stroke-miterlimit:10;" d="
		M19,2.4c4.6,1.1-1.1,9.4,3.9,16.4c6.7,9.4-4.9,2.9-10.8,5.5c-8.6,3.9-14.4-6-6.9-9.3C13.7,11.3,14.3,1.2,19,2.4z"/>
	
		<linearGradient id="SVGID_00000171703335025156584020000014417817308985359752_" gradientUnits="userSpaceOnUse" x1="1.9699" y1="12.5085" x2="25.119" y2="12.5085">
		<stop  offset="0" style="stop-color:#3172B8"/>
		<stop  offset="0.6998" style="stop-color:#1E8CAB"/>
		<stop  offset="1" style="stop-color:#088C88"/>
	</linearGradient>
	
		<path style="fill:none;stroke:url(#SVGID_00000171703335025156584020000014417817308985359752_);stroke-width:0.45;stroke-miterlimit:10;" d="
		M22,20.2c8.6,10.1-4.1-0.2-9.8,2.9c-9,5-13.9-4.2-6.1-7.2c9.1-3.6,8.3-17.7,13.2-15.3C24,2.9,15.9,13,22,20.2z"/>
</g>
</svg>
