<?xml version="1.0" encoding="utf-8"?>
<!-- Generator: Adobe Illustrator 26.0.3, SVG Export Plug-In . SVG Version: 6.00 Build 0)  -->
<svg version="1.1" id="圖層_1" xmlns="http://www.w3.org/2000/svg" xmlns:xlink="http://www.w3.org/1999/xlink" x="0px" y="0px"
	 viewBox="0 0 89.2 29.7" style="enable-background:new 0 0 89.2 29.7;" xml:space="preserve">
<style type="text/css">
	
		.st0{fill:none;stroke:url(#XMLID_00000126304872478064448820000010319498436982026922_);stroke-width:0.4432;stroke-miterlimit:10;}
	.st1{fill:none;stroke:url(#SVGID_1_);stroke-width:0.4432;stroke-miterlimit:10;}
	
		.st2{fill:none;stroke:url(#SVGID_00000159466390667063025530000000327710361342471560_);stroke-width:0.4432;stroke-miterlimit:10;}
	
		.st3{fill:none;stroke:url(#SVGID_00000178903434542410906500000010051320558087396257_);stroke-width:0.4432;stroke-miterlimit:10;}
	
		.st4{fill:none;stroke:url(#SVGID_00000068668082876166882830000000929923476432087943_);stroke-width:0.4432;stroke-miterlimit:10;}
	
		.st5{fill:none;stroke:url(#XMLID_00000047749311367876011780000013103673082359229356_);stroke-width:0.4432;stroke-miterlimit:10;}
	.st6{fill:none;stroke:#FFFFFF;stroke-miterlimit:10;}
	.st7{fill:url(#SVGID_00000181051051667152110470000002390886176250826675_);}
	.st8{fill:url(#SVGID_00000078024426556480530340000001458038354011655089_);}
	.st9{fill:url(#SVGID_00000094613328969309700550000010802551339044540554_);}
	.st10{fill:url(#SVGID_00000145772425093572702920000007547365321970529201_);}
	.st11{fill:url(#SVGID_00000069389037919086250170000006806470030277099939_);}
	.st12{fill:url(#SVGID_00000026145214673852846100000014363369073842832317_);}
	.st13{fill:url(#SVGID_00000106118106627601139630000014177208974371954567_);}
	.st14{fill:url(#SVGID_00000033364847321863529650000011870615839236730549_);}
	.st15{fill:url(#SVGID_00000072245335786391030210000010616341942207701385_);}
	
		.st16{fill:none;stroke:url(#XMLID_00000005977229634626692940000006048366662457565119_);stroke-width:0.4432;stroke-miterlimit:10;}
	
		.st17{fill:none;stroke:url(#SVGID_00000016068457983356333240000010609515061402603698_);stroke-width:0.4432;stroke-miterlimit:10;}
	
		.st18{fill:none;stroke:url(#SVGID_00000106866307477131924290000012329897948381055678_);stroke-width:0.4432;stroke-miterlimit:10;}
	
		.st19{fill:none;stroke:url(#SVGID_00000177466679397304121910000003063647977993629341_);stroke-width:0.4432;stroke-miterlimit:10;}
	
		.st20{fill:none;stroke:url(#SVGID_00000054964675066339173590000015220249945207925897_);stroke-width:0.4432;stroke-miterlimit:10;}
	
		.st21{fill:none;stroke:url(#XMLID_00000056396143851855388500000005699844194242447791_);stroke-width:0.4432;stroke-miterlimit:10;}
	.st22{fill:url(#SVGID_00000081634054879126193700000007442309384794452611_);}
	.st23{fill:url(#SVGID_00000042014888946530351490000005476147331558593960_);}
	.st24{fill:url(#SVGID_00000104665258187317616990000012181657614937054356_);}
	.st25{fill:url(#SVGID_00000135676654066220812910000009398360654631037324_);}
	.st26{fill:url(#SVGID_00000052814477335654279950000006381464792259943560_);}
	.st27{fill:url(#SVGID_00000017474353597419416350000000804355600391326907_);}
	.st28{fill:url(#SVGID_00000154427599976693445840000009951564292653642933_);}
	.st29{fill:url(#SVGID_00000156573720085366988840000008814829250237264281_);}
	.st30{fill:url(#SVGID_00000004545238005372671650000004114779658481443481_);}
</style>
<g id="XMLID_00000124861064474847984550000017895829584294574228_">
	
		<linearGradient id="XMLID_00000103957306495491083420000007117656786183288991_" gradientUnits="userSpaceOnUse" x1="29.1654" y1="-125.1827" x2="56.1593" y2="-125.1827" gradientTransform="matrix(1 0 0 -1 0 -106.9797)">
		<stop  offset="0" style="stop-color:#FFFFFF"/>
		<stop  offset="0.3456" style="stop-color:#935AA0"/>
		<stop  offset="0.6998" style="stop-color:#77308D"/>
		<stop  offset="1" style="stop-color:#791584"/>
	</linearGradient>
	
		<path id="XMLID_00000092453502060571331730000004145648536626333881_" style="fill:none;stroke:url(#XMLID_00000103957306495491083420000007117656786183288991_);stroke-width:0.4432;stroke-miterlimit:10;" d="
		M55.9,13c0,6.5-7.9,16-14.4,16s-16.6-13.1-10-17.4c5.7-3.7,11.6,2.4,15.9-2C50.9,6,55.9,6.5,55.9,13z"/>
	
		<linearGradient id="SVGID_1_" gradientUnits="userSpaceOnUse" x1="29.6439" y1="-124.3988" x2="55.4301" y2="-124.3988" gradientTransform="matrix(1 0 0 -1 0 -106.9797)">
		<stop  offset="0" style="stop-color:#FCFCFC"/>
		<stop  offset="0.3456" style="stop-color:#7F5FA5"/>
		<stop  offset="0.6998" style="stop-color:#654293"/>
		<stop  offset="1" style="stop-color:#622D85"/>
	</linearGradient>
	<path class="st1" d="M47.6,7.8c3.7-2.5,6,0.1,7.4,6.7c1.5,7.3-7.2,12.6-13.5,13.4c-7.1,0.8-16.1-11.4-9.2-15.4
		C38.6,8.7,43.1,10.8,47.6,7.8z"/>
	
		<linearGradient id="SVGID_00000163777924680509284730000017396048687546476928_" gradientUnits="userSpaceOnUse" x1="30.0435" y1="-123.3178" x2="54.8954" y2="-123.3178" gradientTransform="matrix(1 0 0 -1 0 -106.9797)">
		<stop  offset="0" style="stop-color:#F9F9F9"/>
		<stop  offset="0.3456" style="stop-color:#6C64AA"/>
		<stop  offset="0.6998" style="stop-color:#535599"/>
		<stop  offset="1" style="stop-color:#4C4586"/>
	</linearGradient>
	
		<path style="fill:none;stroke:url(#SVGID_00000163777924680509284730000017396048687546476928_);stroke-width:0.4432;stroke-miterlimit:10;" d="
		M47.8,6c4-1.4,3.6,3.2,6.2,9.9c3.2,8.1-6.4,9.3-12.6,10.8c-7.6,1.8-15.5-9.6-8.4-13.3C40,9.6,43.2,7.6,47.8,6z"/>
	
		<linearGradient id="SVGID_00000055690573504139111680000009587368667849539202_" gradientUnits="userSpaceOnUse" x1="30.4289" y1="-122.0785" x2="54.6159" y2="-122.0785" gradientTransform="matrix(1 0 0 -1 0 -106.9797)">
		<stop  offset="0" style="stop-color:#F5F5F5"/>
		<stop  offset="0.3456" style="stop-color:#5868AE"/>
		<stop  offset="0.6998" style="stop-color:#42679F"/>
		<stop  offset="1" style="stop-color:#355C86"/>
	</linearGradient>
	
		<path style="fill:none;stroke:url(#SVGID_00000055690573504139111680000009587368667849539202_);stroke-width:0.4432;stroke-miterlimit:10;" d="
		M48,4.2c4.3-0.2,1.2,6.3,5.1,13.2c4.9,8.8-5.7,6.1-11.7,8.1c-8.1,2.8-15-7.8-7.7-11.3C41.4,10.5,43.3,4.4,48,4.2z"/>
	
		<linearGradient id="SVGID_00000039093917970910849400000016708983314684943806_" gradientUnits="userSpaceOnUse" x1="30.7934" y1="-120.7542" x2="54.4176" y2="-120.7542" gradientTransform="matrix(1 0 0 -1 0 -106.9797)">
		<stop  offset="0" style="stop-color:#F2F2F2"/>
		<stop  offset="0.3456" style="stop-color:#456DB3"/>
		<stop  offset="0.6998" style="stop-color:#307AA5"/>
		<stop  offset="1" style="stop-color:#1F7487"/>
	</linearGradient>
	
		<path style="fill:none;stroke:url(#SVGID_00000039093917970910849400000016708983314684943806_);stroke-width:0.4432;stroke-miterlimit:10;" d="
		M48.2,2.4c4.6,1.1-1.1,9.4,3.9,16.4c6.7,9.5-4.9,2.9-10.8,5.5c-8.6,3.9-14.4-6-6.9-9.3C42.9,11.4,43.4,1.3,48.2,2.4z"/>
	
		<linearGradient id="XMLID_00000042730451621268495230000017266733775628975017_" gradientUnits="userSpaceOnUse" x1="31.131" y1="-119.59" x2="54.2956" y2="-119.59" gradientTransform="matrix(1 0 0 -1 0 -106.9797)">
		<stop  offset="0" style="stop-color:#E6E6E6"/>
		<stop  offset="0.3456" style="stop-color:#3172B8"/>
		<stop  offset="0.6998" style="stop-color:#1E8CAB"/>
		<stop  offset="1" style="stop-color:#088C88"/>
	</linearGradient>
	
		<path id="XMLID_00000098932991054417841410000007664588113555313594_" style="fill:none;stroke:url(#XMLID_00000042730451621268495230000017266733775628975017_);stroke-width:0.4432;stroke-miterlimit:10;" d="
		M51.1,20.3c8.6,10.1-4.1-0.2-9.9,2.9c-9,5-13.9-4.2-6.1-7.3c9.1-3.6,8.3-17.7,13.2-15.3S45,13.1,51.1,20.3z"/>
</g>
<g>
	<path class="st6" d="M39.1,20.5h-1.2v-0.6h1.2v-0.1c0-0.3-0.3-0.6-0.6-0.6h-0.6v-0.6h1.8v-0.1c0-0.3-0.3-0.6-0.6-0.6h-2v3.3h2.6
		v-0.1C39.7,20.7,39.4,20.5,39.1,20.5z"/>
	<path class="st6" d="M47.2,17.8h-0.9l-1.3,1.4v-1.7h-0.1c-0.2,0-0.7,0.1-0.7,0.7v2.8h0.1c0.4,0,0.7-0.3,0.7-0.7v-0.8l1.3,1.5h1
		l-1.6-1.8L47.2,17.8z"/>
	<path class="st6" d="M36.2,18c-0.2-0.1-0.4-0.1-0.6-0.1h-1.7v3.3H34c0.2,0,0.7-0.1,0.7-0.7v-0.4h0.9c0.2,0,0.4,0,0.6-0.1
		c0.2-0.1,0.3-0.2,0.4-0.4c0.1-0.2,0.1-0.3,0.1-0.5s0-0.4-0.1-0.5C36.5,18.2,36.4,18.1,36.2,18z M35.9,19.2
		c-0.1,0.1-0.2,0.1-0.3,0.1h-0.8v-0.8h0.8c0.1,0,0.2,0,0.3,0.1c0.1,0.1,0.1,0.2,0.1,0.3C36,19,35.9,19.1,35.9,19.2z"/>
	<path class="st6" d="M43.5,13.8c-0.2-0.2-0.3-0.3-0.6-0.4c-0.4-0.2-0.9-0.2-1.4,0c-0.2,0.1-0.4,0.2-0.6,0.4s-0.3,0.3-0.4,0.5
		c-0.1,0.2-0.1,0.4-0.1,0.7c0,0.2,0,0.5,0.1,0.7s0.2,0.4,0.4,0.5c0.2,0.2,0.3,0.3,0.6,0.4c0.2,0.1,0.4,0.1,0.7,0.1
		c0.2,0,0.5,0,0.7-0.1c0.2-0.1,0.4-0.2,0.6-0.4c0.2-0.2,0.3-0.3,0.4-0.5S44,15.3,44,15c0-0.2,0-0.5-0.1-0.7
		C43.8,14.2,43.7,14,43.5,13.8z M43.2,15.4c0,0.1-0.1,0.2-0.2,0.3c-0.1,0.1-0.2,0.2-0.3,0.2c-0.2,0.1-0.5,0.1-0.7,0
		c-0.1,0-0.2-0.1-0.3-0.2c-0.1-0.1-0.1-0.2-0.2-0.3c0-0.1-0.1-0.2-0.1-0.4c0-0.1,0-0.3,0.1-0.4s0.1-0.2,0.2-0.3
		c0.1-0.1,0.2-0.2,0.3-0.2c0.1,0,0.2-0.1,0.4-0.1c0.1,0,0.3,0,0.4,0.1c0.1,0,0.2,0.1,0.3,0.2c0.1,0.1,0.1,0.2,0.2,0.3
		c0,0.1,0.1,0.2,0.1,0.4C43.2,15.2,43.2,15.3,43.2,15.4z"/>
	<path class="st6" d="M51.9,14.4c-0.1-0.2-0.2-0.4-0.4-0.5c-0.2-0.1-0.3-0.3-0.5-0.3s-0.4-0.1-0.7-0.1H49v3.3h1.3
		c0.2,0,0.5,0,0.7-0.1c0.2-0.1,0.4-0.2,0.5-0.3c0.2-0.1,0.3-0.3,0.4-0.5C52,15.5,52,15.3,52,15C52,14.8,52,14.6,51.9,14.4z
		 M51.1,15.4c0,0.1-0.1,0.2-0.2,0.3c-0.1,0.1-0.2,0.2-0.3,0.2c-0.1,0-0.2,0.1-0.4,0.1h-0.5v-1.9h0.5c0.1,0,0.3,0,0.4,0.1
		c0.1,0,0.2,0.1,0.3,0.2c0.1,0.1,0.2,0.2,0.2,0.3c0,0.1,0.1,0.2,0.1,0.4C51.2,15.2,51.2,15.3,51.1,15.4z"/>
	<path class="st6" d="M40,16l-0.4-0.7h0c0.2-0.1,0.3-0.2,0.4-0.4s0.2-0.3,0.2-0.5s0-0.4-0.1-0.5c-0.1-0.2-0.2-0.3-0.4-0.4
		c-0.2-0.1-0.4-0.1-0.6-0.1h-1.7v3.3h0c0.2,0,0.7-0.1,0.7-0.7v-0.7h0.7l0.7,1.3v0h0c0.2,0,0.3-0.1,0.4-0.2
		C40.1,16.3,40.1,16.1,40,16z M39.4,14.6L39.4,14.6c-0.1,0.1-0.2,0.1-0.3,0.1h-0.8v-0.8h0.8c0.1,0,0.2,0,0.3,0.1
		c0.1,0.1,0.1,0.2,0.1,0.3C39.5,14.5,39.5,14.6,39.4,14.6z"/>
	<path class="st6" d="M34.9,14.3c0.1-0.1,0.2-0.2,0.3-0.2c0.1-0.1,0.3-0.1,0.4-0.1c0.2,0,0.3,0,0.5,0.1c0.1,0.1,0.3,0.2,0.4,0.3l0,0
		l0.5-0.5l0,0c-0.1-0.1-0.2-0.2-0.4-0.3c-0.1-0.1-0.3-0.2-0.5-0.2c-0.2-0.1-0.3-0.1-0.5-0.1c-0.2,0-0.5,0-0.7,0.1
		c-0.2,0.1-0.4,0.2-0.6,0.4c-0.2,0.2-0.3,0.3-0.4,0.5c-0.1,0.2-0.1,0.4-0.1,0.7c0,0.2,0,0.5,0.1,0.7c0.1,0.2,0.2,0.4,0.4,0.5
		c0.2,0.2,0.3,0.3,0.6,0.4c0.2,0.1,0.4,0.1,0.7,0.1c0.2,0,0.3,0,0.5-0.1c0.2,0,0.3-0.1,0.5-0.2c0.1-0.1,0.3-0.2,0.4-0.3l0,0
		l-0.5-0.5l0,0c-0.1,0.1-0.2,0.2-0.4,0.3C35.9,16,35.8,16,35.6,16c-0.1,0-0.3,0-0.4-0.1c-0.1-0.1-0.2-0.1-0.3-0.2
		c-0.1-0.1-0.2-0.2-0.2-0.3c0-0.1,0-0.3,0-0.4c0-0.1,0-0.3,0.1-0.4C34.7,14.5,34.8,14.4,34.9,14.3z"/>
	<path class="st6" d="M43.4,20.4l-1-2.5h-0.9l-1.3,3.3h0.1c0,0,0.1,0,0.1,0s0.1,0,0.1,0c0.3,0,0.5-0.1,0.7-0.7l0-0.1h1.3l0,0.1l0,0
		l0.1,0.3l0,0c0.1,0.2,0.2,0.3,0.4,0.4c0.1,0,0.2,0,0.3,0c0,0,0.1,0,0.1,0c0,0,0.1,0,0.1,0h0.1L43.4,20.4L43.4,20.4z M41.5,19.7
		l0.4-1.1l0.4,1.1H41.5z"/>
	<path class="st6" d="M47.6,13.7l-0.3,1.5l-0.4-1.4c-0.1-0.2-0.3-0.4-0.5-0.4l0,0l0,0l0,0c-0.2,0-0.4,0.2-0.5,0.4l-0.4,1.4l-0.3-1.5
		c0-0.2-0.2-0.3-0.4-0.3h-0.5l0.5,2.2l0.2,1.1l0,0h0.9l0.4-1.4l0.2-0.6l0.5,2v0h0.9l0.2-0.9l0.5-2.3v-0.1H48
		C47.9,13.4,47.7,13.5,47.6,13.7z"/>
</g>
<g>
	
		<linearGradient id="SVGID_00000062166501605564427670000016349561901845679510_" gradientUnits="userSpaceOnUse" x1="52.578" y1="-134.0895" x2="32.7376" y2="-123.6104" gradientTransform="matrix(1 0 0 -1 0 -106.9797)">
		<stop  offset="0" style="stop-color:#45BEE6"/>
		<stop  offset="0.5215" style="stop-color:#587DBE"/>
		<stop  offset="1" style="stop-color:#6D4B9B"/>
	</linearGradient>
	<path style="fill:url(#SVGID_00000062166501605564427670000016349561901845679510_);" d="M39.1,20.5h-1.2v-0.6h1.2v-0.1
		c0-0.3-0.3-0.6-0.6-0.6h-0.6v-0.6h1.8v-0.1c0-0.3-0.3-0.6-0.6-0.6h-2v3.3h2.6v-0.1C39.7,20.7,39.4,20.5,39.1,20.5z"/>
	
		<linearGradient id="SVGID_00000119083916385136841340000016591744730211243400_" gradientUnits="userSpaceOnUse" x1="54.219" y1="-130.9825" x2="34.3787" y2="-120.5034" gradientTransform="matrix(1 0 0 -1 0 -106.9797)">
		<stop  offset="0" style="stop-color:#45BEE6"/>
		<stop  offset="0.5215" style="stop-color:#587DBE"/>
		<stop  offset="1" style="stop-color:#6D4B9B"/>
	</linearGradient>
	<path style="fill:url(#SVGID_00000119083916385136841340000016591744730211243400_);" d="M47.2,17.8h-0.9l-1.3,1.4v-1.7h-0.1
		c-0.2,0-0.7,0.1-0.7,0.7v2.8h0.1c0.4,0,0.7-0.3,0.7-0.7v-0.8l1.3,1.5h1l-1.6-1.8L47.2,17.8z"/>
	
		<linearGradient id="SVGID_00000163047621960699141160000000395319489476546985_" gradientUnits="userSpaceOnUse" x1="51.8792" y1="-135.4124" x2="32.0389" y2="-124.9334" gradientTransform="matrix(1 0 0 -1 0 -106.9797)">
		<stop  offset="0" style="stop-color:#45BEE6"/>
		<stop  offset="0.5215" style="stop-color:#587DBE"/>
		<stop  offset="1" style="stop-color:#6D4B9B"/>
	</linearGradient>
	<path style="fill:url(#SVGID_00000163047621960699141160000000395319489476546985_);" d="M36.2,18c-0.2-0.1-0.4-0.1-0.6-0.1h-1.7
		v3.3H34c0.2,0,0.7-0.1,0.7-0.7v-0.4h0.9c0.2,0,0.4,0,0.6-0.1c0.2-0.1,0.3-0.2,0.4-0.4c0.1-0.2,0.1-0.3,0.1-0.5s0-0.4-0.1-0.5
		C36.5,18.2,36.4,18.1,36.2,18z M35.9,19.2c-0.1,0.1-0.2,0.1-0.3,0.1h-0.8v-0.8h0.8c0.1,0,0.2,0,0.3,0.1c0.1,0.1,0.1,0.2,0.1,0.3
		C36,19,35.9,19.1,35.9,19.2z"/>
	
		<linearGradient id="SVGID_00000008838215987266540590000014957511715674900407_" gradientUnits="userSpaceOnUse" x1="55.3219" y1="-128.8942" x2="35.4816" y2="-118.4152" gradientTransform="matrix(1 0 0 -1 0 -106.9797)">
		<stop  offset="0" style="stop-color:#45BEE6"/>
		<stop  offset="0.5215" style="stop-color:#587DBE"/>
		<stop  offset="1" style="stop-color:#6D4B9B"/>
	</linearGradient>
	<path style="fill:url(#SVGID_00000008838215987266540590000014957511715674900407_);" d="M43.5,13.8c-0.2-0.2-0.3-0.3-0.6-0.4
		c-0.4-0.2-0.9-0.2-1.4,0c-0.2,0.1-0.4,0.2-0.6,0.4s-0.3,0.3-0.4,0.5c-0.1,0.2-0.1,0.4-0.1,0.7c0,0.2,0,0.5,0.1,0.7s0.2,0.4,0.4,0.5
		c0.2,0.2,0.3,0.3,0.6,0.4c0.2,0.1,0.4,0.1,0.7,0.1c0.2,0,0.5,0,0.7-0.1c0.2-0.1,0.4-0.2,0.6-0.4c0.2-0.2,0.3-0.3,0.4-0.5
		S44,15.3,44,15c0-0.2,0-0.5-0.1-0.7C43.8,14.2,43.7,14,43.5,13.8z M43.2,15.4c0,0.1-0.1,0.2-0.2,0.3c-0.1,0.1-0.2,0.2-0.3,0.2
		c-0.2,0.1-0.5,0.1-0.7,0c-0.1,0-0.2-0.1-0.3-0.2c-0.1-0.1-0.1-0.2-0.2-0.3c0-0.1-0.1-0.2-0.1-0.4c0-0.1,0-0.3,0.1-0.4
		s0.1-0.2,0.2-0.3c0.1-0.1,0.2-0.2,0.3-0.2c0.1,0,0.2-0.1,0.4-0.1c0.1,0,0.3,0,0.4,0.1c0.1,0,0.2,0.1,0.3,0.2
		c0.1,0.1,0.1,0.2,0.2,0.3c0,0.1,0.1,0.2,0.1,0.4C43.2,15.2,43.2,15.3,43.2,15.4z"/>
	
		<linearGradient id="SVGID_00000140727236693870241450000004649463789225267840_" gradientUnits="userSpaceOnUse" x1="56.9883" y1="-125.7392" x2="37.148" y2="-115.2602" gradientTransform="matrix(1 0 0 -1 0 -106.9797)">
		<stop  offset="0" style="stop-color:#45BEE6"/>
		<stop  offset="0.5215" style="stop-color:#587DBE"/>
		<stop  offset="1" style="stop-color:#6D4B9B"/>
	</linearGradient>
	<path style="fill:url(#SVGID_00000140727236693870241450000004649463789225267840_);" d="M51.9,14.4c-0.1-0.2-0.2-0.4-0.4-0.5
		c-0.2-0.1-0.3-0.3-0.5-0.3s-0.4-0.1-0.7-0.1H49v3.3h1.3c0.2,0,0.5,0,0.7-0.1c0.2-0.1,0.4-0.2,0.5-0.3c0.2-0.1,0.3-0.3,0.4-0.5
		C52,15.5,52,15.3,52,15C52,14.8,52,14.6,51.9,14.4z M51.1,15.4c0,0.1-0.1,0.2-0.2,0.3c-0.1,0.1-0.2,0.2-0.3,0.2
		c-0.1,0-0.2,0.1-0.4,0.1h-0.5v-1.9h0.5c0.1,0,0.3,0,0.4,0.1c0.1,0,0.2,0.1,0.3,0.2c0.1,0.1,0.2,0.2,0.2,0.3c0,0.1,0.1,0.2,0.1,0.4
		C51.2,15.2,51.2,15.3,51.1,15.4z"/>
	
		<linearGradient id="SVGID_00000105394605237302181770000012437347446649157532_" gradientUnits="userSpaceOnUse" x1="54.4997" y1="-130.451" x2="34.6594" y2="-119.9719" gradientTransform="matrix(1 0 0 -1 0 -106.9797)">
		<stop  offset="0" style="stop-color:#45BEE6"/>
		<stop  offset="0.5215" style="stop-color:#587DBE"/>
		<stop  offset="1" style="stop-color:#6D4B9B"/>
	</linearGradient>
	<path style="fill:url(#SVGID_00000105394605237302181770000012437347446649157532_);" d="M40,16l-0.4-0.7h0
		c0.2-0.1,0.3-0.2,0.4-0.4s0.2-0.3,0.2-0.5s0-0.4-0.1-0.5c-0.1-0.2-0.2-0.3-0.4-0.4c-0.2-0.1-0.4-0.1-0.6-0.1h-1.7v3.3h0
		c0.2,0,0.7-0.1,0.7-0.7v-0.7h0.7l0.7,1.3v0h0c0.2,0,0.3-0.1,0.4-0.2C40.1,16.3,40.1,16.1,40,16z M39.4,14.6L39.4,14.6
		c-0.1,0.1-0.2,0.1-0.3,0.1h-0.8v-0.8h0.8c0.1,0,0.2,0,0.3,0.1c0.1,0.1,0.1,0.2,0.1,0.3C39.5,14.5,39.5,14.6,39.4,14.6z"/>
	
		<linearGradient id="SVGID_00000020360910354408502190000002614921871075429269_" gradientUnits="userSpaceOnUse" x1="53.8679" y1="-131.6471" x2="34.0276" y2="-121.1681" gradientTransform="matrix(1 0 0 -1 0 -106.9797)">
		<stop  offset="0" style="stop-color:#45BEE6"/>
		<stop  offset="0.5215" style="stop-color:#587DBE"/>
		<stop  offset="1" style="stop-color:#6D4B9B"/>
	</linearGradient>
	<path style="fill:url(#SVGID_00000020360910354408502190000002614921871075429269_);" d="M34.9,14.3c0.1-0.1,0.2-0.2,0.3-0.2
		c0.1-0.1,0.3-0.1,0.4-0.1c0.2,0,0.3,0,0.5,0.1c0.1,0.1,0.3,0.2,0.4,0.3l0,0l0.5-0.5l0,0c-0.1-0.1-0.2-0.2-0.4-0.3
		c-0.1-0.1-0.3-0.2-0.5-0.2c-0.2-0.1-0.3-0.1-0.5-0.1c-0.2,0-0.5,0-0.7,0.1c-0.2,0.1-0.4,0.2-0.6,0.4c-0.2,0.2-0.3,0.3-0.4,0.5
		c-0.1,0.2-0.1,0.4-0.1,0.7c0,0.2,0,0.5,0.1,0.7c0.1,0.2,0.2,0.4,0.4,0.5c0.2,0.2,0.3,0.3,0.6,0.4c0.2,0.1,0.4,0.1,0.7,0.1
		c0.2,0,0.3,0,0.5-0.1c0.2,0,0.3-0.1,0.5-0.2c0.1-0.1,0.3-0.2,0.4-0.3l0,0l-0.5-0.5l0,0c-0.1,0.1-0.2,0.2-0.4,0.3
		C35.9,16,35.8,16,35.6,16c-0.1,0-0.3,0-0.4-0.1c-0.1-0.1-0.2-0.1-0.3-0.2c-0.1-0.1-0.2-0.2-0.2-0.3c0-0.1,0-0.3,0-0.4
		c0-0.1,0-0.3,0.1-0.4C34.7,14.5,34.8,14.4,34.9,14.3z"/>
	
		<linearGradient id="SVGID_00000169536531043071400220000000445143248825911936_" gradientUnits="userSpaceOnUse" x1="53.2629" y1="-132.7926" x2="33.4226" y2="-122.3136" gradientTransform="matrix(1 0 0 -1 0 -106.9797)">
		<stop  offset="0" style="stop-color:#45BEE6"/>
		<stop  offset="0.5215" style="stop-color:#587DBE"/>
		<stop  offset="1" style="stop-color:#6D4B9B"/>
	</linearGradient>
	<path style="fill:url(#SVGID_00000169536531043071400220000000445143248825911936_);" d="M43.4,20.4l-1-2.5h-0.9l-1.3,3.3h0.1
		c0,0,0.1,0,0.1,0s0.1,0,0.1,0c0.3,0,0.5-0.1,0.7-0.7l0-0.1h1.3l0,0.1l0,0l0.1,0.3l0,0c0.1,0.2,0.2,0.3,0.4,0.4c0.1,0,0.2,0,0.3,0
		c0,0,0.1,0,0.1,0c0,0,0.1,0,0.1,0h0.1L43.4,20.4L43.4,20.4z M41.5,19.7l0.4-1.1l0.4,1.1H41.5z"/>
	
		<linearGradient id="SVGID_00000083074499710856059840000016291835972749990320_" gradientUnits="userSpaceOnUse" x1="56.3001" y1="-127.0423" x2="36.4598" y2="-116.5632" gradientTransform="matrix(1 0 0 -1 0 -106.9797)">
		<stop  offset="0" style="stop-color:#45BEE6"/>
		<stop  offset="0.5215" style="stop-color:#587DBE"/>
		<stop  offset="1" style="stop-color:#6D4B9B"/>
	</linearGradient>
	<path style="fill:url(#SVGID_00000083074499710856059840000016291835972749990320_);" d="M47.6,13.7l-0.3,1.5l-0.4-1.4
		c-0.1-0.2-0.3-0.4-0.5-0.4l0,0l0,0l0,0c-0.2,0-0.4,0.2-0.5,0.4l-0.4,1.4l-0.3-1.5c0-0.2-0.2-0.3-0.4-0.3h-0.5l0.5,2.2l0.2,1.1l0,0
		h0.9l0.4-1.4l0.2-0.6l0.5,2v0h0.9l0.2-0.9l0.5-2.3v-0.1H48C47.9,13.4,47.7,13.5,47.6,13.7z"/>
</g>
<g id="XMLID_00000054950979035370569970000001336540181120849581_">
	
		<linearGradient id="XMLID_00000066501059638642731380000006392934363445047684_" gradientUnits="userSpaceOnUse" x1="0.1277" y1="-56.0369" x2="27.1216" y2="-56.0369" gradientTransform="matrix(1 0 0 -1 0 -106.9797)">
		<stop  offset="0" style="stop-color:#FFFFFF"/>
		<stop  offset="0.3456" style="stop-color:#935AA0"/>
		<stop  offset="0.6998" style="stop-color:#77308D"/>
		<stop  offset="1" style="stop-color:#791584"/>
	</linearGradient>
	
		<path id="XMLID_00000107555153528971861440000003294236784298726540_" style="fill:none;stroke:url(#XMLID_00000066501059638642731380000006392934363445047684_);stroke-width:0.4432;stroke-miterlimit:10;" d="
		M26.9-56.1c0,6.5-7.9,16-14.4,16s-16.6-13.1-10-17.4c5.7-3.7,11.6,2.4,15.9-2C21.9-63.1,26.9-62.6,26.9-56.1z"/>
	
		<linearGradient id="SVGID_00000175315695192713991880000002367371455221151106_" gradientUnits="userSpaceOnUse" x1="0.6063" y1="-55.2529" x2="26.3924" y2="-55.2529" gradientTransform="matrix(1 0 0 -1 0 -106.9797)">
		<stop  offset="0" style="stop-color:#FCFCFC"/>
		<stop  offset="0.3456" style="stop-color:#7F5FA5"/>
		<stop  offset="0.6998" style="stop-color:#654293"/>
		<stop  offset="1" style="stop-color:#622D85"/>
	</linearGradient>
	
		<path style="fill:none;stroke:url(#SVGID_00000175315695192713991880000002367371455221151106_);stroke-width:0.4432;stroke-miterlimit:10;" d="
		M18.6-61.3c3.7-2.5,6,0.1,7.4,6.7c1.5,7.3-7.2,12.6-13.5,13.4C5.4-40.4-3.6-52.6,3.3-56.6C9.6-60.4,14.1-58.3,18.6-61.3z"/>
	
		<linearGradient id="SVGID_00000087413348456903695210000014262398687705773991_" gradientUnits="userSpaceOnUse" x1="1.0058" y1="-54.172" x2="25.8577" y2="-54.172" gradientTransform="matrix(1 0 0 -1 0 -106.9797)">
		<stop  offset="0" style="stop-color:#F9F9F9"/>
		<stop  offset="0.3456" style="stop-color:#6C64AA"/>
		<stop  offset="0.6998" style="stop-color:#535599"/>
		<stop  offset="1" style="stop-color:#4C4586"/>
	</linearGradient>
	
		<path style="fill:none;stroke:url(#SVGID_00000087413348456903695210000014262398687705773991_);stroke-width:0.4432;stroke-miterlimit:10;" d="
		M18.8-63.1c4-1.4,3.6,3.2,6.2,9.9c3.2,8.1-6.4,9.3-12.6,10.8C4.8-40.6-3.1-52,4-55.7C11-59.5,14.2-61.5,18.8-63.1z"/>
	
		<linearGradient id="SVGID_00000172410987988833242210000008584150805395441548_" gradientUnits="userSpaceOnUse" x1="1.3912" y1="-52.9326" x2="25.5783" y2="-52.9326" gradientTransform="matrix(1 0 0 -1 0 -106.9797)">
		<stop  offset="0" style="stop-color:#F5F5F5"/>
		<stop  offset="0.3456" style="stop-color:#5868AE"/>
		<stop  offset="0.6998" style="stop-color:#42679F"/>
		<stop  offset="1" style="stop-color:#355C86"/>
	</linearGradient>
	
		<path style="fill:none;stroke:url(#SVGID_00000172410987988833242210000008584150805395441548_);stroke-width:0.4432;stroke-miterlimit:10;" d="
		M19-64.9c4.3-0.2,1.2,6.3,5.1,13.2c4.9,8.8-5.7,6.1-11.7,8.1c-8.1,2.8-15-7.8-7.7-11.3C12.4-58.6,14.3-64.7,19-64.9z"/>
	
		<linearGradient id="SVGID_00000093889464723542781490000010747427993956538297_" gradientUnits="userSpaceOnUse" x1="1.7557" y1="-51.6083" x2="25.38" y2="-51.6083" gradientTransform="matrix(1 0 0 -1 0 -106.9797)">
		<stop  offset="0" style="stop-color:#F2F2F2"/>
		<stop  offset="0.3456" style="stop-color:#456DB3"/>
		<stop  offset="0.6998" style="stop-color:#307AA5"/>
		<stop  offset="1" style="stop-color:#1F7487"/>
	</linearGradient>
	
		<path style="fill:none;stroke:url(#SVGID_00000093889464723542781490000010747427993956538297_);stroke-width:0.4432;stroke-miterlimit:10;" d="
		M19.2-66.7c4.6,1.1-1.1,9.4,3.9,16.4c6.7,9.5-4.9,2.9-10.8,5.5c-8.6,3.9-14.4-6-6.9-9.3C13.9-57.7,14.4-67.8,19.2-66.7z"/>
	
		<linearGradient id="XMLID_00000005240219273674423090000008407294151847186307_" gradientUnits="userSpaceOnUse" x1="2.0933" y1="-50.4441" x2="25.2579" y2="-50.4441" gradientTransform="matrix(1 0 0 -1 0 -106.9797)">
		<stop  offset="0" style="stop-color:#E6E6E6"/>
		<stop  offset="0.3456" style="stop-color:#3172B8"/>
		<stop  offset="0.6998" style="stop-color:#1E8CAB"/>
		<stop  offset="1" style="stop-color:#088C88"/>
	</linearGradient>
	
		<path id="XMLID_00000012454997979536690520000002796486924561175429_" style="fill:none;stroke:url(#XMLID_00000005240219273674423090000008407294151847186307_);stroke-width:0.4432;stroke-miterlimit:10;" d="
		M22.1-48.8c8.6,10.1-4.1-0.2-9.9,2.9c-9,5-13.9-4.2-6.1-7.3c9.1-3.6,8.3-17.7,13.2-15.3C24.2-66.1,16-56,22.1-48.8z"/>
</g>
<g>
	
		<linearGradient id="SVGID_00000061450083016531582500000009437320280587405498_" gradientUnits="userSpaceOnUse" x1="90.2879" y1="-85.2877" x2="31.4456" y2="-54.209" gradientTransform="matrix(1 0 0 -1 0 -106.9797)">
		<stop  offset="0" style="stop-color:#45BEE6"/>
		<stop  offset="0.5215" style="stop-color:#587DBE"/>
		<stop  offset="1" style="stop-color:#6D4B9B"/>
	</linearGradient>
	<path style="fill:url(#SVGID_00000061450083016531582500000009437320280587405498_);" d="M50.3-41.4h-3.5v-1.9h3.5v-0.2
		c0-1-0.8-1.8-1.8-1.8h-1.8v-1.8H52v-0.2c0-1-0.8-1.8-1.8-1.8h-5.8v9.7h7.7v-0.2C52.1-40.6,51.3-41.4,50.3-41.4z"/>
	
		<linearGradient id="SVGID_00000119834628755662275300000014716633293734223010_" gradientUnits="userSpaceOnUse" x1="95.1548" y1="-76.073" x2="36.3125" y2="-44.9943" gradientTransform="matrix(1 0 0 -1 0 -106.9797)">
		<stop  offset="0" style="stop-color:#45BEE6"/>
		<stop  offset="0.5215" style="stop-color:#587DBE"/>
		<stop  offset="1" style="stop-color:#6D4B9B"/>
	</linearGradient>
	<path style="fill:url(#SVGID_00000119834628755662275300000014716633293734223010_);" d="M74.2-49.2h-2.8l-4,4.3v-4.9h-0.2
		c-0.5,0.1-2,0.3-2.1,2.1v8.2h0.2c1.2,0,2.2-1,2.2-2.2v-2.4l4,4.5h3.1l-4.8-5.2L74.2-49.2z"/>
	
		<linearGradient id="SVGID_00000029008194850071952030000013220127990547296142_" gradientUnits="userSpaceOnUse" x1="88.2156" y1="-89.2112" x2="29.3733" y2="-58.1325" gradientTransform="matrix(1 0 0 -1 0 -106.9797)">
		<stop  offset="0" style="stop-color:#45BEE6"/>
		<stop  offset="0.5215" style="stop-color:#587DBE"/>
		<stop  offset="1" style="stop-color:#6D4B9B"/>
	</linearGradient>
	<path style="fill:url(#SVGID_00000029008194850071952030000013220127990547296142_);" d="M41.8-48.7c-0.5-0.3-1.1-0.4-1.7-0.4H35
		v9.7h0.2c0.5-0.1,2.1-0.4,2.1-2.2v-1.3h2.8c0.6,0,1.2-0.1,1.7-0.4s0.9-0.6,1.2-1.1s0.4-1,0.4-1.6c0-0.6-0.1-1.1-0.4-1.6
		C42.6-48.1,42.2-48.5,41.8-48.7z M40.7-45.2c-0.2,0.2-0.5,0.3-0.9,0.3h-2.5v-2.3h2.5c0.4,0,0.7,0.1,0.9,0.3
		c0.2,0.2,0.3,0.5,0.3,0.8C41-45.6,40.9-45.4,40.7-45.2z"/>
	
		<linearGradient id="SVGID_00000019649280032605978780000014096191187608107173_" gradientUnits="userSpaceOnUse" x1="98.426" y1="-69.8795" x2="39.5837" y2="-38.8009" gradientTransform="matrix(1 0 0 -1 0 -106.9797)">
		<stop  offset="0" style="stop-color:#45BEE6"/>
		<stop  offset="0.5215" style="stop-color:#587DBE"/>
		<stop  offset="1" style="stop-color:#6D4B9B"/>
	</linearGradient>
	<path style="fill:url(#SVGID_00000019649280032605978780000014096191187608107173_);" d="M63.5-61.1c-0.5-0.5-1-0.8-1.7-1.1
		c-1.3-0.5-2.8-0.5-4.1,0c-0.6,0.3-1.2,0.6-1.7,1.1s-0.8,1-1.1,1.6c-0.3,0.6-0.4,1.3-0.4,2c0,0.7,0.1,1.4,0.4,2
		c0.3,0.6,0.6,1.1,1.1,1.6s1,0.8,1.7,1.1c0.6,0.3,1.3,0.4,2,0.4s1.4-0.1,2-0.4s1.2-0.6,1.7-1.1s0.8-1,1.1-1.6c0.3-0.6,0.4-1.3,0.4-2
		c0-0.7-0.1-1.4-0.4-2C64.4-60.1,64-60.6,63.5-61.1z M62.4-56.4c-0.1,0.4-0.3,0.7-0.6,0.9c-0.2,0.3-0.5,0.5-0.9,0.6
		c-0.7,0.3-1.5,0.3-2.2,0c-0.3-0.1-0.6-0.3-0.9-0.6c-0.2-0.3-0.4-0.6-0.6-0.9c-0.1-0.3-0.2-0.7-0.2-1.1c0-0.4,0.1-0.8,0.2-1.1
		c0.1-0.3,0.3-0.7,0.6-0.9c0.2-0.3,0.5-0.5,0.9-0.6c0.3-0.1,0.7-0.2,1.1-0.2c0.4,0,0.8,0.1,1.1,0.2s0.6,0.3,0.9,0.6
		c0.2,0.3,0.4,0.6,0.6,0.9c0.1,0.3,0.2,0.7,0.2,1.1C62.6-57.1,62.6-56.7,62.4-56.4z"/>
	
		<linearGradient id="SVGID_00000123411281320024339220000005239306167683364776_" gradientUnits="userSpaceOnUse" x1="103.3682" y1="-60.5226" x2="44.5258" y2="-29.4439" gradientTransform="matrix(1 0 0 -1 0 -106.9797)">
		<stop  offset="0" style="stop-color:#45BEE6"/>
		<stop  offset="0.5215" style="stop-color:#587DBE"/>
		<stop  offset="1" style="stop-color:#6D4B9B"/>
	</linearGradient>
	<path style="fill:url(#SVGID_00000123411281320024339220000005239306167683364776_);" d="M88.3-59.4C88-60,87.7-60.5,87.2-61
		c-0.5-0.4-1-0.8-1.6-1s-1.3-0.4-2-0.4h-3.9v9.7h3.9c0.7,0,1.4-0.1,2-0.4c0.6-0.2,1.2-0.6,1.6-1c0.5-0.4,0.8-1,1.1-1.5
		c0.3-0.6,0.4-1.2,0.4-1.9C88.7-58.2,88.5-58.8,88.3-59.4z M86-56.4c-0.1,0.3-0.3,0.6-0.6,0.9c-0.3,0.3-0.6,0.5-0.9,0.6
		c-0.3,0.1-0.7,0.2-1.1,0.2h-1.6v-5.6h1.6c0.4,0,0.8,0.1,1.1,0.2c0.3,0.1,0.6,0.3,0.9,0.6c0.3,0.3,0.5,0.6,0.6,0.9s0.2,0.7,0.2,1.1
		C86.2-57.1,86.2-56.7,86-56.4z"/>
	
		<linearGradient id="SVGID_00000067939589749294909470000013218794058496615069_" gradientUnits="userSpaceOnUse" x1="95.9874" y1="-74.4967" x2="37.1451" y2="-43.418" gradientTransform="matrix(1 0 0 -1 0 -106.9797)">
		<stop  offset="0" style="stop-color:#45BEE6"/>
		<stop  offset="0.5215" style="stop-color:#587DBE"/>
		<stop  offset="1" style="stop-color:#6D4B9B"/>
	</linearGradient>
	<path style="fill:url(#SVGID_00000067939589749294909470000013218794058496615069_);" d="M53.1-54.7l-1.2-2.2H52
		c0.5-0.2,1-0.6,1.3-1.1s0.5-0.8,0.5-1.4c0-0.6-0.1-1.1-0.4-1.6c-0.3-0.5-0.7-0.8-1.2-1.1c-0.5-0.3-1.1-0.4-1.8-0.4h-4.9v9.9h0.1
		c0.5-0.1,2-0.4,2.1-2.1v-2h2l2.1,4v0.1h0.1c0.5,0,1-0.3,1.2-0.7C53.4-53.7,53.4-54.2,53.1-54.7z M51.2-58.7L51.2-58.7
		c-0.2,0.2-0.6,0.3-1,0.3h-2.5v-2.4h2.5c0.4,0,0.7,0.1,1,0.3c0.2,0.2,0.4,0.5,0.4,0.9C51.5-59.2,51.4-58.9,51.2-58.7z"/>
	
		<linearGradient id="SVGID_00000091705051722194245400000008004405381869119375_" gradientUnits="userSpaceOnUse" x1="94.1137" y1="-78.0443" x2="35.2714" y2="-46.9655" gradientTransform="matrix(1 0 0 -1 0 -106.9797)">
		<stop  offset="0" style="stop-color:#45BEE6"/>
		<stop  offset="0.5215" style="stop-color:#587DBE"/>
		<stop  offset="1" style="stop-color:#6D4B9B"/>
	</linearGradient>
	<path style="fill:url(#SVGID_00000091705051722194245400000008004405381869119375_);" d="M37.8-59.7c0.3-0.3,0.6-0.5,0.9-0.6
		c0.4-0.2,0.8-0.2,1.2-0.2c0.5,0,1,0.1,1.4,0.3c0.4,0.2,0.8,0.5,1.2,0.9l0.1,0.1l1.5-1.5L44-60.8c-0.3-0.4-0.7-0.7-1.1-1
		c-0.4-0.3-0.9-0.5-1.4-0.6c-0.5-0.2-1-0.2-1.6-0.2c-0.7,0-1.4,0.1-2.1,0.4c-0.6,0.3-1.2,0.6-1.7,1.1s-0.9,1-1.1,1.6
		c-0.3,0.6-0.4,1.3-0.4,2c0,0.7,0.1,1.4,0.4,2c0.3,0.6,0.6,1.2,1.1,1.6c0.5,0.5,1,0.8,1.7,1.1c0.6,0.3,1.3,0.4,2.1,0.4
		c0.5,0,1-0.1,1.5-0.2c0.5-0.1,1-0.4,1.4-0.6c0.4-0.3,0.8-0.6,1.1-1l0.1-0.1l-1.5-1.5l-0.1,0.1c-0.3,0.4-0.7,0.7-1.1,0.9
		c-0.4,0.2-0.9,0.3-1.4,0.3c-0.4,0-0.9-0.1-1.2-0.2c-0.4-0.2-0.7-0.4-1-0.6c-0.3-0.3-0.5-0.6-0.6-1c0-0.4-0.1-0.8-0.1-1.2
		c0-0.4,0.1-0.9,0.2-1.2C37.4-59.1,37.6-59.4,37.8-59.7z"/>
	
		<linearGradient id="SVGID_00000105389812860453171190000010454508608745076406_" gradientUnits="userSpaceOnUse" x1="92.3193" y1="-81.4415" x2="33.477" y2="-50.3628" gradientTransform="matrix(1 0 0 -1 0 -106.9797)">
		<stop  offset="0" style="stop-color:#45BEE6"/>
		<stop  offset="0.5215" style="stop-color:#587DBE"/>
		<stop  offset="1" style="stop-color:#6D4B9B"/>
	</linearGradient>
	<path style="fill:url(#SVGID_00000105389812860453171190000010454508608745076406_);" d="M63-41.7l-3-7.5h-2.7l-4,9.7h0.3
		c0.1,0,0.3,0,0.4,0c0.1,0,0.2,0,0.4,0c0.9,0,1.6-0.2,2.2-2l0.1-0.4h3.9l0.1,0.4l0,0l0.3,0.8l0,0c0.3,0.6,0.7,0.9,1.1,1.1
		c0.3,0.1,0.5,0.1,0.8,0.1c0.1,0,0.2,0,0.4,0c0.1,0,0.3,0,0.4,0H64L63-41.7L63-41.7z M57.3-43.7l1.3-3.3l1.2,3.3H57.3z"/>
	
		<linearGradient id="SVGID_00000103233124120857459050000017757281424017515447_" gradientUnits="userSpaceOnUse" x1="101.327" y1="-64.3871" x2="42.4847" y2="-33.3084" gradientTransform="matrix(1 0 0 -1 0 -106.9797)">
		<stop  offset="0" style="stop-color:#45BEE6"/>
		<stop  offset="0.5215" style="stop-color:#587DBE"/>
		<stop  offset="1" style="stop-color:#6D4B9B"/>
	</linearGradient>
	<path style="fill:url(#SVGID_00000103233124120857459050000017757281424017515447_);" d="M75.6-61.4l-0.9,4.5l-1.2-4.3
		c-0.2-0.7-0.8-1.1-1.5-1.1l0,0l0,0l0,0c-0.7,0-1.3,0.5-1.5,1.1l-1.2,4.3l-0.9-4.5c-0.1-0.6-0.6-1-1.2-1h-1.6L67-56l0.7,3.4l0,0h2.7
		l1.1-4.1l0.5-1.7l1.6,5.8v0.1h2.7l0.6-2.8l1.5-6.9v-0.2h-1.6C76.3-62.4,75.7-62,75.6-61.4z"/>
</g>
</svg>
