<?xml version="1.0" encoding="utf-8"?>
<!-- Generator: Adobe Illustrator 26.0.3, SVG Export Plug-In . SVG Version: 6.00 Build 0)  -->
<svg version="1.1" id="圖層_1" xmlns="http://www.w3.org/2000/svg" xmlns:xlink="http://www.w3.org/1999/xlink" x="0px" y="0px"
	 viewBox="0 0 90.2 37.4" style="enable-background:new 0 0 90.2 37.4;" xml:space="preserve">
<style type="text/css">
	.st0{fill:url(#SVGID_1_);}
	.st1{fill:url(#SVGID_00000154400674923999982930000000070475468728722362_);}
	.st2{fill:url(#SVGID_00000083057374691640230410000009553386319260382354_);}
	.st3{fill:url(#SVGID_00000062908765285076498080000008599621722999771801_);}
	.st4{fill:url(#SVGID_00000013876106654551197230000008562816057196837529_);}
	.st5{fill:url(#SVGID_00000109735448673067371280000010519894171567524797_);}
	.st6{fill:url(#SVGID_00000049901929525054253860000001175748630391050624_);}
	.st7{fill:url(#SVGID_00000049218605333810483810000009459205207163703956_);}
	.st8{fill:url(#SVGID_00000009551132160184071360000007598151518575747003_);}
	
		.st9{fill:none;stroke:url(#XMLID_00000129903149388783949210000006194689248058537397_);stroke-width:0.4765;stroke-miterlimit:10;}
	
		.st10{fill:none;stroke:url(#SVGID_00000116922292117837541040000016229029623037475511_);stroke-width:0.4765;stroke-miterlimit:10;}
	
		.st11{fill:none;stroke:url(#SVGID_00000139283019477439942170000002562658713136288384_);stroke-width:0.4765;stroke-miterlimit:10;}
	
		.st12{fill:none;stroke:url(#SVGID_00000018213420347107218350000012431964502537108877_);stroke-width:0.4765;stroke-miterlimit:10;}
	
		.st13{fill:none;stroke:url(#SVGID_00000081631702509847114220000013908316746842989233_);stroke-width:0.4765;stroke-miterlimit:10;}
	
		.st14{fill:none;stroke:url(#XMLID_00000069393268478482990490000005111003993421374883_);stroke-width:0.4765;stroke-miterlimit:10;}
</style>
<g>
	<linearGradient id="SVGID_1_" gradientUnits="userSpaceOnUse" x1="91.3195" y1="48.3017" x2="38.1116" y2="20.1989">
		<stop  offset="0" style="stop-color:#326CAD"/>
		<stop  offset="0.52" style="stop-color:#2486A2"/>
		<stop  offset="1" style="stop-color:#8C5697"/>
	</linearGradient>
	<path class="st0" d="M55.2,30.5h-3.2v-1.7h3.2v-0.2c0-0.9-0.7-1.6-1.6-1.6h-1.6v-1.7h4.8v-0.2c0-0.9-0.7-1.7-1.7-1.7h-5.3v8.8h7
		v-0.2C56.8,31.2,56.1,30.5,55.2,30.5z"/>
	
		<linearGradient id="SVGID_00000044165533971268854380000000979808112205096576_" gradientUnits="userSpaceOnUse" x1="95.671" y1="40.0628" x2="42.4631" y2="11.9601">
		<stop  offset="0" style="stop-color:#326CAD"/>
		<stop  offset="0.52" style="stop-color:#2486A2"/>
		<stop  offset="1" style="stop-color:#8C5697"/>
	</linearGradient>
	<path style="fill:url(#SVGID_00000044165533971268854380000000979808112205096576_);" d="M76.8,23.5h-2.6l-3.6,3.9l0-4.4l-0.2,0
		c-0.4,0-1.8,0.3-1.9,1.9l0,7.4h0.2c1.1,0,2-0.9,2-2l0-2.1l3.6,4.1H77l-4.3-4.7L76.8,23.5z"/>
	
		<linearGradient id="SVGID_00000160188992733209244230000001340990755071212444_" gradientUnits="userSpaceOnUse" x1="89.4286" y1="51.8818" x2="36.2207" y2="23.779">
		<stop  offset="0" style="stop-color:#326CAD"/>
		<stop  offset="0.52" style="stop-color:#2486A2"/>
		<stop  offset="1" style="stop-color:#8C5697"/>
	</linearGradient>
	<path style="fill:url(#SVGID_00000160188992733209244230000001340990755071212444_);" d="M47.4,23.9c-0.4-0.2-1-0.4-1.5-0.4h-4.6
		v8.8l0.2,0c0.4,0,1.9-0.3,1.9-2v-1.1h2.5c0.6,0,1.1-0.1,1.5-0.4c0.4-0.2,0.8-0.6,1.1-1c0.3-0.4,0.4-0.9,0.4-1.4
		c0-0.5-0.1-1-0.4-1.5C48.2,24.5,47.9,24.1,47.4,23.9z M46.4,27.1c-0.2,0.2-0.5,0.3-0.8,0.3h-2.3v-2.1h2.3c0.3,0,0.6,0.1,0.8,0.3
		c0.2,0.2,0.3,0.5,0.3,0.8C46.7,26.7,46.6,26.9,46.4,27.1z"/>
	
		<linearGradient id="SVGID_00000021823071128993225540000012726061653418849936_" gradientUnits="userSpaceOnUse" x1="98.6776" y1="34.3705" x2="45.4696" y2="6.2677">
		<stop  offset="0" style="stop-color:#326CAD"/>
		<stop  offset="0.52" style="stop-color:#2486A2"/>
		<stop  offset="1" style="stop-color:#8C5697"/>
	</linearGradient>
	<path style="fill:url(#SVGID_00000021823071128993225540000012726061653418849936_);" d="M67.1,12.7c-0.4-0.4-0.9-0.7-1.5-1
		c-1.1-0.5-2.6-0.5-3.7,0c-0.6,0.2-1.1,0.6-1.5,1c-0.4,0.4-0.8,0.9-1,1.4c-0.2,0.5-0.4,1.1-0.4,1.8c0,0.6,0.1,1.2,0.4,1.8
		c0.2,0.5,0.6,1,1,1.4c0.4,0.4,0.9,0.7,1.5,1c0.6,0.2,1.2,0.3,1.8,0.3c0.7,0,1.3-0.1,1.8-0.3c0.6-0.2,1.1-0.6,1.5-1
		c0.4-0.4,0.8-0.9,1-1.4c0.2-0.5,0.4-1.1,0.4-1.8c0-0.6-0.1-1.2-0.4-1.8C67.9,13.6,67.5,13.1,67.1,12.7z M66.1,17
		c-0.1,0.3-0.3,0.6-0.5,0.8c-0.2,0.2-0.5,0.4-0.8,0.5c-0.6,0.3-1.4,0.3-2,0c-0.3-0.1-0.6-0.3-0.8-0.5c-0.2-0.2-0.4-0.5-0.5-0.8
		c-0.1-0.3-0.2-0.7-0.2-1c0-0.4,0.1-0.7,0.2-1c0.1-0.3,0.3-0.6,0.5-0.8c0.2-0.2,0.5-0.4,0.8-0.5c0.3-0.1,0.7-0.2,1-0.2
		c0.3,0,0.7,0.1,1,0.2c0.3,0.1,0.6,0.3,0.8,0.5c0.2,0.2,0.4,0.5,0.5,0.8c0.1,0.3,0.2,0.7,0.2,1C66.3,16.3,66.2,16.6,66.1,17z"/>
	
		<linearGradient id="SVGID_00000134961707403341610840000007468000334027115426_" gradientUnits="userSpaceOnUse" x1="103.0938" y1="26.0092" x2="49.8858" y2="-2.0936">
		<stop  offset="0" style="stop-color:#326CAD"/>
		<stop  offset="0.52" style="stop-color:#2486A2"/>
		<stop  offset="1" style="stop-color:#8C5697"/>
	</linearGradient>
	<path style="fill:url(#SVGID_00000134961707403341610840000007468000334027115426_);" d="M89.5,14.2c-0.2-0.5-0.6-1-1-1.4
		c-0.4-0.4-0.9-0.7-1.5-0.9c-0.6-0.2-1.2-0.3-1.8-0.3h-3.6v8.8h3.6c0.7,0,1.3-0.1,1.8-0.3c0.6-0.2,1.1-0.5,1.5-0.9
		c0.4-0.4,0.8-0.9,1-1.4c0.2-0.5,0.4-1.1,0.4-1.7C89.8,15.3,89.7,14.8,89.5,14.2z M87.5,16.9c-0.1,0.3-0.3,0.6-0.5,0.8
		c-0.2,0.2-0.5,0.4-0.8,0.5c-0.3,0.1-0.6,0.2-1,0.2h-1.4v-5.1h1.4c0.3,0,0.7,0.1,1,0.2c0.3,0.1,0.6,0.3,0.8,0.5
		c0.2,0.2,0.4,0.5,0.5,0.8c0.1,0.3,0.2,0.7,0.2,1C87.6,16.3,87.6,16.6,87.5,16.9z"/>
	
		<linearGradient id="SVGID_00000136399001163014877340000014086087246450128791_" gradientUnits="userSpaceOnUse" x1="96.4326" y1="38.6211" x2="43.2246" y2="10.5183">
		<stop  offset="0" style="stop-color:#326CAD"/>
		<stop  offset="0.52" style="stop-color:#2486A2"/>
		<stop  offset="1" style="stop-color:#8C5697"/>
	</linearGradient>
	<path style="fill:url(#SVGID_00000136399001163014877340000014086087246450128791_);" d="M57.7,18.5l-1.1-2l0.1,0
		c0.5-0.2,0.9-0.5,1.2-1c0.3-0.4,0.4-0.7,0.4-1.3c0-0.5-0.1-1-0.4-1.4c-0.3-0.4-0.6-0.7-1.1-1c-0.5-0.2-1-0.4-1.6-0.4h-4.5v9l0.1,0
		c0.4-0.1,1.8-0.3,1.9-1.9l0-1.8h1.8l1.9,3.6l0,0.1h0.1c0.5,0,0.9-0.2,1.1-0.6C57.9,19.4,57.9,18.9,57.7,18.5z M55.9,14.8L55.9,14.8
		c-0.2,0.2-0.5,0.3-0.9,0.3h-2.2V13H55c0.4,0,0.6,0.1,0.9,0.3c0.2,0.2,0.3,0.5,0.3,0.8C56.2,14.4,56.1,14.6,55.9,14.8z"/>
	
		<linearGradient id="SVGID_00000080890008861382825450000007254669675138696325_" gradientUnits="userSpaceOnUse" x1="94.7659" y1="41.7767" x2="41.5579" y2="13.6739">
		<stop  offset="0" style="stop-color:#326CAD"/>
		<stop  offset="0.52" style="stop-color:#2486A2"/>
		<stop  offset="1" style="stop-color:#8C5697"/>
	</linearGradient>
	<path style="fill:url(#SVGID_00000080890008861382825450000007254669675138696325_);" d="M43.9,14c0.2-0.2,0.5-0.4,0.9-0.6
		c0.3-0.1,0.7-0.2,1.1-0.2c0.5,0,0.9,0.1,1.3,0.3c0.4,0.2,0.8,0.5,1.1,0.9l0.1,0.1l1.4-1.4L49.5,13c-0.3-0.4-0.6-0.7-1-0.9
		c-0.4-0.2-0.8-0.4-1.3-0.6c-0.5-0.1-0.9-0.2-1.4-0.2c-0.7,0-1.3,0.1-1.9,0.4c-0.6,0.2-1.1,0.6-1.5,1c-0.4,0.4-0.8,0.9-1,1.5
		c-0.2,0.6-0.4,1.2-0.4,1.8c0,0.6,0.1,1.3,0.4,1.8c0.2,0.6,0.6,1.1,1,1.5c0.4,0.4,0.9,0.7,1.5,1c0.6,0.2,1.2,0.4,1.9,0.4
		c0.5,0,0.9-0.1,1.4-0.2c0.5-0.1,0.9-0.3,1.3-0.6c0.4-0.2,0.7-0.5,1-0.9l0.1-0.1l-1.3-1.3l-0.1,0.1c-0.3,0.3-0.6,0.6-1,0.8
		c-0.4,0.2-0.8,0.3-1.2,0.3c-0.4,0-0.8-0.1-1.1-0.2c-0.3-0.1-0.6-0.3-0.9-0.6c-0.2-0.2-0.4-0.5-0.6-0.9c-0.1-0.3-0.2-0.7-0.2-1.1
		c0-0.4,0.1-0.8,0.2-1.1C43.4,14.5,43.6,14.2,43.9,14z"/>
	
		<linearGradient id="SVGID_00000130638964399696698060000014741209213970910118_" gradientUnits="userSpaceOnUse" x1="93.1132" y1="44.9057" x2="39.9053" y2="16.8029">
		<stop  offset="0" style="stop-color:#326CAD"/>
		<stop  offset="0.52" style="stop-color:#2486A2"/>
		<stop  offset="1" style="stop-color:#8C5697"/>
	</linearGradient>
	<path style="fill:url(#SVGID_00000130638964399696698060000014741209213970910118_);" d="M66.6,30.2l-2.7-6.8h-2.4l-3.6,8.8h0.2
		c0.1,0,0.2,0,0.4,0c0.1,0,0.2,0,0.3,0c0.8,0,1.5-0.2,2-1.8l0.1-0.3h3.5l0.1,0.3c0,0,0,0,0,0l0.3,0.7c0,0,0,0,0,0
		c0.3,0.6,0.6,0.8,1,0.9c0.2,0.1,0.5,0.1,0.7,0.1c0.1,0,0.2,0,0.3,0c0.1,0,0.2,0,0.4,0h0.3L66.6,30.2C66.6,30.3,66.6,30.3,66.6,30.2
		z M61.5,28.5l1.1-3l1.1,3H61.5z"/>
	
		<linearGradient id="SVGID_00000049220064536501895380000007764456605876545724_" gradientUnits="userSpaceOnUse" x1="101.2799" y1="29.4434" x2="48.072" y2="1.3407">
		<stop  offset="0" style="stop-color:#326CAD"/>
		<stop  offset="0.52" style="stop-color:#2486A2"/>
		<stop  offset="1" style="stop-color:#8C5697"/>
	</linearGradient>
	<path style="fill:url(#SVGID_00000049220064536501895380000007764456605876545724_);" d="M78,12.4l-0.8,4l-1.1-3.9
		c-0.2-0.6-0.7-1-1.4-1c0,0,0,0,0,0h0c0,0,0,0,0,0c-0.6,0-1.2,0.4-1.4,1l-1.1,3.9l-0.8-4c-0.1-0.5-0.6-0.9-1.1-0.9h-1.4l1.3,5.8
		l0.7,3.1l0,0h2.5l1-3.7l0.4-1.5l1.4,5.2l0,0h2.4l0.5-2.5l1.4-6.2l0-0.2h-1.4C78.6,11.5,78.1,11.9,78,12.4z"/>
</g>
<g id="XMLID_00000178203617366330733100000007294173135567869582_">
	
		<linearGradient id="XMLID_00000121993532092626179240000016339321411932513936_" gradientUnits="userSpaceOnUse" x1="0.129" y1="23.1135" x2="34.1998" y2="23.1135">
		<stop  offset="0" style="stop-color:#FFFFFF"/>
		<stop  offset="0.3456" style="stop-color:#935AA0"/>
		<stop  offset="0.6998" style="stop-color:#77308D"/>
		<stop  offset="1" style="stop-color:#791584"/>
	</linearGradient>
	
		<path id="XMLID_00000054949197651530293040000007248528231276569275_" style="fill:none;stroke:url(#XMLID_00000121993532092626179240000016339321411932513936_);stroke-width:0.4765;stroke-miterlimit:10;" d="
		M34,16.6c0,8.3-10,20.2-18.3,20.2s-20.9-16.5-12.6-22c7.2-4.7,14.6,3,20.1-2.6C27.6,7.7,34,8.3,34,16.6z"/>
	
		<linearGradient id="SVGID_00000050624567516277955730000013414837603403064737_" gradientUnits="userSpaceOnUse" x1="0.6914" y1="22.0948" x2="33.213" y2="22.0948">
		<stop  offset="0" style="stop-color:#F8F8F8"/>
		<stop  offset="0.3456" style="stop-color:#7F5FA5"/>
		<stop  offset="0.6998" style="stop-color:#654293"/>
		<stop  offset="1" style="stop-color:#622D85"/>
	</linearGradient>
	
		<path style="fill:none;stroke:url(#SVGID_00000050624567516277955730000013414837603403064737_);stroke-width:0.4765;stroke-miterlimit:10;" d="
		M23.4,10c4.7-3.1,7.6,0.1,9.3,8.5c1.9,9.2-9.1,15.9-17.1,16.9C6.7,36.4-4.6,21,4,15.9C12.1,11.2,17.7,13.8,23.4,10z"/>
	
		<linearGradient id="SVGID_00000130619636726672959280000011612251150693145020_" gradientUnits="userSpaceOnUse" x1="1.2186" y1="20.7675" x2="32.5737" y2="20.7675">
		<stop  offset="0" style="stop-color:#F1F1F1"/>
		<stop  offset="0.3456" style="stop-color:#6C64AA"/>
		<stop  offset="0.6998" style="stop-color:#535599"/>
		<stop  offset="1" style="stop-color:#4C4586"/>
	</linearGradient>
	
		<path style="fill:none;stroke:url(#SVGID_00000130619636726672959280000011612251150693145020_);stroke-width:0.4765;stroke-miterlimit:10;" d="
		M23.7,7.7c5.1-1.7,4.5,4,7.9,12.6c4,10.2-8.1,11.8-15.9,13.6C6,36.1-4,21.8,4.9,17C13.9,12.3,17.8,9.7,23.7,7.7z"/>
	
		<linearGradient id="SVGID_00000108269623511239220720000015614962348268651401_" gradientUnits="userSpaceOnUse" x1="1.7102" y1="19.2291" x2="32.1711" y2="19.2291">
		<stop  offset="0" style="stop-color:#E9EAEA"/>
		<stop  offset="0.3456" style="stop-color:#5868AE"/>
		<stop  offset="0.6998" style="stop-color:#42679F"/>
		<stop  offset="1" style="stop-color:#355C86"/>
	</linearGradient>
	
		<path style="fill:none;stroke:url(#SVGID_00000108269623511239220720000015614962348268651401_);stroke-width:0.4765;stroke-miterlimit:10;" d="
		M23.9,5.5c5.4-0.2,1.6,8,6.4,16.6c6.2,11.1-7.2,7.7-14.8,10.3C5.3,35.9-3.4,22.5,5.9,18.1C15.6,13.4,18,5.7,23.9,5.5z"/>
	
		<linearGradient id="SVGID_00000063619124241499782630000016652937528024855698_" gradientUnits="userSpaceOnUse" x1="2.1679" y1="17.5828" x2="31.9282" y2="17.5828">
		<stop  offset="0" style="stop-color:#E2E3E3"/>
		<stop  offset="0.3456" style="stop-color:#456DB3"/>
		<stop  offset="0.6998" style="stop-color:#307AA5"/>
		<stop  offset="1" style="stop-color:#1F7487"/>
	</linearGradient>
	
		<path style="fill:none;stroke:url(#SVGID_00000063619124241499782630000016652937528024855698_);stroke-width:0.4765;stroke-miterlimit:10;" d="
		M24.1,3.2c5.8,1.4-1.3,11.9,5,20.7c8.5,12-6.2,3.7-13.6,7C4.7,35.8-2.7,23.4,6.8,19.2C17.4,14.6,18.1,1.8,24.1,3.2z"/>
	
		<linearGradient id="XMLID_00000154396599824078231790000007646516772995373964_" gradientUnits="userSpaceOnUse" x1="2.5946" y1="16.0645" x2="31.7935" y2="16.0645">
		<stop  offset="0" style="stop-color:#DBDCDC"/>
		<stop  offset="0.3456" style="stop-color:#3172B8"/>
		<stop  offset="0.6998" style="stop-color:#1E8CAB"/>
		<stop  offset="1" style="stop-color:#088C88"/>
	</linearGradient>
	
		<path id="XMLID_00000017488499237080041210000014321045463598889133_" style="fill:none;stroke:url(#XMLID_00000154396599824078231790000007646516772995373964_);stroke-width:0.4765;stroke-miterlimit:10;" d="
		M27.9,25.8c10.8,12.7-5.2-0.3-12.5,3.7c-11.4,6.3-17.5-5.3-7.7-9.2C19.2,15.8,18.2-2.1,24.4,1C30.5,3.9,20.1,16.7,27.9,25.8z"/>
</g>
</svg>
